<?xml version="1.0" encoding="UTF-8"?>
<svg id="Layer_1" data-name="Layer 1" xmlns="http://www.w3.org/2000/svg" viewBox="0 0 64.02 89.01">
  <defs>
    <style>
      .cls-1 {
        letter-spacing: -.02em;
      }

      .cls-2 {
        letter-spacing: 0em;
      }

      .cls-3 {
        font-family: HelveticaNeue-Bold, 'Helvetica Neue';
        font-size: 5px;
        font-weight: 700;
        isolation: isolate;
      }

      .cls-3, .cls-4 {
        fill: #000;
      }

      .cls-4 {
        stroke-width: 0px;
      }
    </style>
  </defs>
  <g>
    <path class="cls-4" d="M64.02,25c0-2.88-1.74-5.47-4.33-6.61.15-.6.23-1.2.23-1.81,0-3.99-3.25-7.23-7.23-7.23-.62,0-1.22.08-1.79.23-3.04.77-5.32,3.47-5.44,6.72-3.98.02-7.2,3.26-7.2,7.23,0,2.37,1.14,4.56,3.05,5.9-.64,1.32-.98,2.76-.98,4.22,0,5.14,4.03,9.36,9.1,9.66.2.01.39.02.59.02,5.34,0,9.68-4.34,9.7-9.67,0-.66-.07-1.32-.2-1.97,2.69-1.09,4.5-3.72,4.5-6.69ZM58.19,30.08s-.07.02-.1.03c-.25.07-.47.24-.6.47-.13.23-.16.51-.08.76.07.22.13.45.17.68.12.54.18,1.09.18,1.64,0,4.27-3.47,7.74-7.74,7.74-.15,0-.31,0-.46-.01-4.06-.24-7.29-3.61-7.29-7.73,0-1.39.38-2.76,1.11-3.97h.01s.03-.06.04-.08c.14-.23.18-.51.11-.77-.07-.26-.25-.48-.49-.6-.22-.12-.44-.25-.64-.39-1.38-.99-2.22-2.58-2.22-4.31,0-2.92,2.38-5.29,5.29-5.29.11,0,.21,0,.32.02.17,0,.34.03.54.06.3.04.61-.06.82-.28.22-.22.32-.53.27-.83,0-.03-.01-.05-.01-.08-.02-.18-.04-.37-.04-.56,0-2.69,2.01-4.91,4.61-5.24.22-.04.45-.05.68-.05,2.92,0,5.29,2.38,5.29,5.29,0,.69-.14,1.37-.41,2.03-.11.26-.1.55.02.8s.34.44.61.51c2.28.63,3.87,2.72,3.87,5.08s-1.58,4.45-3.86,5.08Z"/>
    <path class="cls-4" d="M45.79,27.78c-.96.45-1.76,1.08-2.4,1.9h-.01c-.2.26-.48.38-.77.38-.21,0-.42-.07-.59-.2-.42-.33-.5-.94-.17-1.36.18-.23.37-.45.56-.65.73-.76,1.59-1.37,2.56-1.83.48-.23,1.06-.02,1.29.47s.02,1.06-.47,1.29Z"/>
    <path class="cls-4" d="M58.02,32.03c-1.24,0-2.49-.27-3.72-.82-.49-.22-.71-.79-.49-1.28.22-.49.79-.71,1.28-.5,1.07.47,2.15.69,3.21.65.52-.03.99.39,1.01.93.02.53-.39.99-.93,1.01-.12,0-.24,0-.36,0Z"/>
    <path class="cls-4" d="M49.07,20.51c-.18.24-.47.37-.76.37-.21,0-.42-.07-.6-.2-.83-.64-1.47-1.45-1.91-2.41-.09-.18-.17-.37-.24-.57-.18-.5.08-1.06.58-1.24.5-.18,1.06.08,1.24.58.01.03.03.07.04.1.32.83.8,1.49,1.48,2.01.42.33.5.94.17,1.36Z"/>
  </g>
  <g>
    <path class="cls-4" d="M29.23,29.67c0-3.98-3.22-7.24-7.2-7.28-.94-3.54-3.82-6.18-7.38-6.83-.55-.1-1.11-.15-1.69-.15-5.18,0-9.39,4.21-9.39,9.39,0,.69.07,1.37.22,2.03-2.33,1.27-3.79,3.69-3.79,6.39,0,4.01,3.27,7.28,7.28,7.29.52,0,1.04-.06,1.55-.17.9,3.05,3.72,5.23,6.99,5.23,1.22,0,2.37-.3,3.38-.84,2.32-1.22,3.91-3.65,3.91-6.45,0-.47-.05-.94-.14-1.4,3.54-.5,6.26-3.54,6.26-7.21ZM21.93,35.02h-.03s-.05,0-.08-.01h-.02c-.35-.01-.72.12-.92.42-.18.26-.22.6-.1.9.06.16.12.33.16.49.15.49.22.98.22,1.47,0,1.8-.9,3.4-2.28,4.36-.87.62-1.92.98-3.07.98-2.64,0-4.9-1.96-5.28-4.57,0-.03-.01-.05-.01-.08-.04-.3-.21-.56-.47-.71-.15-.09-.32-.14-.49-.14-.12,0-.24.02-.36.06-.18.07-.37.13-.56.18-.44.12-.9.18-1.37.18-2.94,0-5.34-2.4-5.34-5.34,0-2.2,1.32-4.15,3.36-4.97.47-.19.72-.72.56-1.2-.23-.72-.35-1.48-.35-2.26,0-4.11,3.34-7.45,7.45-7.45.46,0,.92.04,1.36.12,3.03.56,5.46,2.95,5.98,6.09,0,.02,0,.04,0,.06.11.48.55.8,1.04.75.19-.02.39-.03.59-.03.12,0,.23,0,.35.02,2.79.17,5,2.5,5,5.33s-2.4,5.35-5.35,5.35Z"/>
    <path class="cls-4" d="M9.56,40.07h-.03c-.54-.02-.96-.46-.94-1,.05-1.94.74-3.66,2.05-5.1.36-.4.97-.43,1.37-.07s.43.97.07,1.37c-1,1.11-1.51,2.37-1.55,3.86-.01.52-.44.94-.97.94Z"/>
    <path class="cls-4" d="M22.64,36.09c-.05.49-.46.85-.95.85-.04,0-.08,0-.12-.01-.21-.03-.42-.06-.63-.11-1.09-.22-2.18-.69-3.24-1.39-.45-.29-.57-.9-.28-1.34.29-.45.9-.57,1.34-.28,1.02.67,2.04,1.07,3.04,1.2h.02c.52.08.89.56.82,1.08Z"/>
    <path class="cls-4" d="M22.28,24.34c-.03.85-.32,1.71-.87,2.54-.18.28-.49.44-.81.44-.18,0-.37-.05-.53-.16-.45-.29-.57-.89-.28-1.34.5-.77.67-1.49.51-2.22,0-.02,0-.04,0-.06-.07-.5.25-.98.75-1.09.53-.12,1.04.22,1.15.74.08.38.12.76.09,1.15Z"/>
  </g>
  <path class="cls-4" d="M49.56,41.39c-.01.34-.02.68-.03,1.03-.01.22-.04.52-.1.89-.29,1.95-1.31,5.74-2.83,9.38-.73,1.74-2.43,2.87-4.31,2.87-1.22,0-2.36-.46-3.23-1.29-.87-.82-1.39-1.94-1.45-3.14-.46-8.12-1.54-13.27-3.21-15.29-.16-.2-.33-.2-.49,0-1.67,2.03-2.75,7.17-3.2,15.29-.15,2.49-2.2,4.43-4.69,4.43-.92,0-1.82-.27-2.6-.79-.77-.52-1.37-1.25-1.73-2.09-1.06-2.45-1.89-5.12-2.49-7.95-.1-.47-.19-.94-.28-1.42-.03-.16-.02-.31.03-.45-.02-.07-.05-.14-.07-.21,1.38-.96,2.28-2.56,2.28-4.36,0-.49-.07-.98-.22-1.47-1.09-.22-2.18-.69-3.24-1.39-.45-.29-.57-.9-.28-1.34.29-.45.9-.57,1.34-.28,1.02.67,2.04,1.07,3.04,1.2h.02s.05.01.08.01h.03c2.95,0,5.35-2.4,5.35-5.35s-2.21-5.16-5-5.33c-.03.85-.32,1.71-.87,2.54-.18.28-.49.44-.81.44-.18,0-.37-.05-.53-.16-.45-.29-.57-.89-.28-1.34.5-.77.67-1.49.51-2.22,0-.02,0-.04,0-.06-.52-3.14-2.95-5.53-5.98-6.09.02-.33.06-.62.11-.89.07-.34.15-.68.23-1,.37-1.42.83-2.53.83-2.53.72-1.72,1.73-3.33,3.02-4.8,2.07-2.36,5.52-3.07,8.37-1.72,1.42.68,3,1.3,4.58,1.82,1.77.58,3.64.58,5.41,0,1.58-.51,3.16-1.14,4.58-1.82,2.86-1.35,6.3-.64,8.37,1.72.24.26.64.72,1.09,1.35.13.18.26.38.4.59.26.39.48.78.69,1.17-2.6.33-4.61,2.55-4.61,5.24,0,.19.02.38.04.56.32.83.8,1.49,1.48,2.01.42.33.5.94.17,1.36-.18.24-.47.37-.76.37-.21,0-.42-.07-.6-.2-.83-.64-1.47-1.45-1.91-2.41-.11-.02-.21-.02-.32-.02-2.91,0-5.29,2.37-5.29,5.29,0,1.73.84,3.32,2.22,4.31.73-.76,1.59-1.37,2.56-1.83.48-.23,1.06-.02,1.29.47s.02,1.06-.47,1.29c-.96.45-1.76,1.08-2.4,1.9h-.01c-.73,1.22-1.11,2.59-1.11,3.98,0,4.12,3.23,7.49,7.29,7.73Z"/>
  <path class="cls-4" d="M9.5,13.98c-2.02,0-3.66-1.64-3.66-3.66s1.64-3.66,3.66-3.66,3.66,1.64,3.66,3.66-1.64,3.66-3.66,3.66ZM9.5,8.61c-.95,0-1.72.77-1.72,1.72s.77,1.72,1.72,1.72,1.72-.77,1.72-1.72-.77-1.72-1.72-1.72Z"/>
  <path class="cls-4" d="M56.99,7.32c-2.02,0-3.66-1.64-3.66-3.66s1.64-3.66,3.66-3.66,3.66,1.64,3.66,3.66-1.64,3.66-3.66,3.66ZM56.99,1.94c-.95,0-1.72.77-1.72,1.72s.77,1.72,1.72,1.72,1.72-.77,1.72-1.72-.77-1.72-1.72-1.72Z"/>
  <path class="cls-4" d="M59.68,52.51c-2.02,0-3.66-1.64-3.66-3.66s1.64-3.66,3.66-3.66,3.66,1.64,3.66,3.66c0,2.02-1.65,3.66-3.66,3.66ZM59.68,47.14c-.95,0-1.72.77-1.72,1.72s.77,1.72,1.72,1.72,1.72-.77,1.72-1.72-.78-1.72-1.72-1.72Z"/>
  <path class="cls-4" d="M8.68,55.56c-2.02,0-3.66-1.64-3.66-3.66s1.64-3.66,3.66-3.66,3.66,1.64,3.66,3.66-1.64,3.66-3.66,3.66ZM8.68,50.18c-.95,0-1.72.77-1.72,1.72s.77,1.72,1.72,1.72,1.72-.77,1.72-1.72c0-.95-.77-1.72-1.72-1.72Z"/>
  <text class="cls-3" transform="translate(.01 79.27)"><tspan x="0" y="0">C</tspan><tspan class="cls-1" x="3.71" y="0">r</tspan><tspan x="5.56" y="0">eated by Haider Ali</tspan></text>
  <text class="cls-3" transform="translate(0 86.61)"><tspan x="0" y="0">f</tspan><tspan class="cls-1" x="1.67" y="0">r</tspan><tspan class="cls-2" x="3.52" y="0">om the Noun P</tspan><tspan class="cls-1" x="38.89" y="0">r</tspan><tspan x="40.75" y="0">oject</tspan></text>
</svg>