<?xml version="1.0" encoding="UTF-8"?>
<svg id="Layer_1" data-name="Layer 1" xmlns="http://www.w3.org/2000/svg" version="1.1" viewBox="0 0 1600 792">
  <defs>
    <style>
      .cls-1 {
        fill: #728fae;
        opacity: .3;
      }

      .cls-1, .cls-2 {
        stroke-width: 0px;
      }

      .cls-2 {
        fill: #6ea9b7;
        opacity: .2;
      }
    </style>
  </defs>
  <path class="cls-1" d="M1600,0v670.3c-539.8,182.6-795.5,113.5-928.4,4.7-7-5.7-13.9-11.8-20.8-18-60.3-54.8-118.4-125.5-224.8-147.3-27.7-5.7-55.3-7.3-82.5-5.7-130.1,7.6-252.8,89.6-343.4,166.3.4-39,.8-78,1.1-117,.1-14.6.3-29.2.4-43.8.5-57.4,1.1-114.7,1.7-172.1C163.8,119,249.4,82.3,298.4,98.8c17.7,6,30.5,18.8,41.5,36.8,21.9,36,36.8,92.7,70.2,157,22.2,42.7,52.5,88.8,98.5,134.4,28.9,28.7,59.4,59.8,93.4,79,9.5,5.4,19.3,9.8,29.4,13.1,96.1,30.8,226.9-45.7,363.3-193.4,80.5-87.1,162.9-199.1,241.3-328.5,86.9.7,173.8,1.3,260.7,2,34.5.3,68.9.5,103.3.8Z"/>
  <path class="cls-2" d="M1600,0v555.1c-490.2-176.6-736.8-91.8-871.8,30.8-22,20-48.1,47.4-77.5,71.1-41.5,33.5-89.6,59.6-142.2,47.1-79.7-18.9-121.8-115.2-165.2-200.1-34.4-67.3-69.7-127.6-125.3-136.6-44.6-7.3-115.3,16.2-217,185.9-.4.6-.8,1.2-1.1,1.9.5-15.2,1-30.5,1.5-45.7,1.4-39.5,2.7-79,4-118.5,124.6-132,254.5-248.4,334.3-255.3,18.1-1.6,33.6,2.4,45.9,13.1,30.5,26.5,28.7,83,24.3,143.9-4.9,67.5-13,140.4,15.8,184,26,39.2,80.8,53.1,176.1,29.5,90.8-22.5,218.4-79.1,392.7-180.4C1131.6,246.2,1297.3,139,1496.7-.8c34.5.3,68.9.5,103.3.8Z"/>
</svg>