<?xml version="1.0" encoding="UTF-8"?>
<svg xmlns="http://www.w3.org/2000/svg" viewBox="0 0 461.35 161.31">
  <defs>
    <style>
      .cls-1, .cls-2 {
        mix-blend-mode: soft-light;
      }

      .cls-1, .cls-3 {
        fill: #2568a5;
        stroke: #2568a5;
        stroke-miterlimit: 10;
      }

      .cls-4 {
        fill: #3180a0;
      }

      .cls-4, .cls-5 {
        stroke-width: 0px;
      }

      .cls-5 {
        fill: #77a8b7;
      }

      .cls-6 {
        isolation: isolate;
      }
    </style>
  </defs>
  <g class="cls-6">
    <g id="Layer_1" data-name="Layer 1">
      <g>
        <g>
          <path class="cls-4" d="M176.08,95.3h-9.88v6.36h9.28v1.19h-9.28v7.96h-1.38v-16.73h11.26v1.22h0Z"/>
          <path class="cls-4" d="M183.77,94.08h1.85l7.53,16.73h-1.49l-2.5-5.57h-8.94l-2.5,5.57h-1.49l7.53-16.73h.01ZM188.65,104.04l-3.94-8.82-3.96,8.82h7.9Z"/>
          <path class="cls-4" d="M196.44,94.08h1.82l6.36,8.75,6.36-8.75h1.85v16.73h-1.38v-15.25l-6.75,9.3h-.16l-6.73-9.3v15.25h-1.38v-16.73Z"/>
          <path class="cls-4" d="M217.77,94.08h1.38v16.73h-1.38v-16.73Z"/>
          <path class="cls-4" d="M225.43,109.59h9.28v1.22h-10.66v-16.73h1.38v15.51h0Z"/>
          <path class="cls-4" d="M234.55,94.08l6,9.08,6-9.08h1.59l-6.88,10.44v6.28h-1.41v-6.21l-6.88-10.51h1.59,0Z"/>
          <path class="cls-4" d="M259.37,94.08h5.97c5.32,0,9.36,3.44,9.36,8.36s-4.09,8.36-9.36,8.36h-5.97v-16.73h0ZM265.39,109.59c4.46,0,7.9-2.94,7.92-7.15,0-4.18-3.46-7.15-7.92-7.15h-4.64v14.29h4.64Z"/>
          <path class="cls-4" d="M290.08,95.3h-9.88v6.26h9.28v1.22h-9.28v6.81h9.88v1.22h-11.26v-16.73h11.26v1.22h0Z"/>
          <path class="cls-4" d="M306.92,109.28l-.1-8.2v-7h1.38v16.73h-1.85l-11.44-15.2.1,8.2v7.01h-1.38v-16.73h1.82l11.47,15.2h0Z"/>
          <path class="cls-4" d="M325.27,95.3h-6.2v15.51h-1.38v-15.51h-6.2v-1.22h13.79v1.22h0Z"/>
          <path class="cls-4" d="M328.71,94.08h1.38v16.73h-1.38v-16.73Z"/>
          <path class="cls-4" d="M347.95,106.27c0,3.23-2.94,4.81-6.54,4.81-4.62,0-7.01-2.15-7.64-5.12h1.38c.71,2.54,2.74,3.92,6.2,3.92,3.16,0,5.21-1.27,5.21-3.54,0-2.15-1.9-2.63-5.66-3.39-4.14-.86-6.62-1.67-6.62-4.47,0-2.94,2.81-4.66,6.36-4.66,3.96,0,6.26,1.69,7.01,4.09h-1.38c-.84-1.84-2.74-2.89-5.58-2.89s-5.03,1.27-5.03,3.51c0,1.62,1.23,2.29,5.55,3.18,4.09.84,6.72,1.53,6.72,4.57h.01Z"/>
          <path class="cls-4" d="M363.52,95.3h-6.2v15.51h-1.38v-15.51h-6.2v-1.22h13.79v1.22h0Z"/>
          <path class="cls-4" d="M366.93,94.08h6.91c4.09,0,6.15,2.17,6.15,5s-1.96,4.88-5.74,5.05l6.31,6.69h-1.75l-6.26-6.69h-4.23v6.69h-1.41v-16.73h0ZM373.73,102.97c3.36,0,4.88-1.77,4.88-3.87s-1.51-3.8-4.88-3.8h-5.4v7.67h5.4Z"/>
          <path class="cls-4" d="M383.4,94.08l6,9.08,6-9.08h1.59l-6.88,10.44v6.28h-1.41v-6.21l-6.88-10.51h1.59,0Z"/>
        </g>
        <g class="cls-2">
          <path class="cls-3" d="M163.68,81.78v-3.83l13.97-14.83h-13.61v-3.69h19.08v3.79l-13.89,14.87h14.25v3.69h-19.8Z"/>
          <path class="cls-3" d="M202.41,81.78v-9.43h-11.23v9.43h-4.57v-22.35h4.57v9.13h11.23v-9.13h4.61v22.35h-4.61Z"/>
          <path class="cls-3" d="M212.13,81.78v-22.35h4.61v22.35h-4.61Z"/>
          <path class="cls-3" d="M234.06,81.78h-12.2v-22.35h11.05c4.71,0,7.42,2.28,7.42,5.77,0,1.78-.97,3.89-3.74,4.83,3.2.91,4.57,3.19,4.57,5.37,0,3.22-2.74,6.38-7.09,6.38ZM231.9,62.82h-5.58v5.97h5.54c2.45,0,3.89-1.14,3.89-3.05s-1.37-2.92-3.85-2.92ZM232.76,72.02h-6.44v6.34h6.44c2.48,0,3.78-1.24,3.78-3.15s-1.19-3.19-3.78-3.19Z"/>
          <path class="cls-3" d="M244.21,81.78v-22.35h4.61v22.35h-4.61Z"/>
          <path class="cls-3" d="M270.42,81.78l-11.99-15.57v15.57h-4.5v-22.35h4.5l11.95,15.57v-15.57h4.54v22.35h-4.5Z"/>
          <path class="cls-3" d="M288.35,81.88h-3.6v-3.36h3.49c2.38,0,3.24-1.51,3.24-3.72v-11.85h-6.16v-3.52h10.76v15.4c0,4.26-2.38,7.05-7.74,7.05Z"/>
          <path class="cls-3" d="M300.84,81.78v-22.35h4.61v22.35h-4.61Z"/>
          <path class="cls-3" d="M322.18,81.78h-5.4v-22.35h5.4c8.96,0,15.08,4.66,15.08,11.17s-6.12,11.17-15.08,11.17ZM323.05,63.22h-1.66v14.76h1.66c5,0,9.43-2.32,9.43-7.38s-4.43-7.38-9.43-7.38Z"/>
          <path class="cls-3" d="M339.5,81.78v-4.73h4.86v4.73h-4.86Z"/>
          <path class="cls-3" d="M354.15,81.78h-5.4v-22.35h5.4c8.96,0,15.08,4.66,15.08,11.17s-6.12,11.17-15.08,11.17ZM355.02,63.22h-1.66v14.76h1.66c5,0,9.43-2.32,9.43-7.38s-4.43-7.38-9.43-7.38Z"/>
          <path class="cls-3" d="M371.47,81.78v-4.73h4.86v4.73h-4.86Z"/>
          <path class="cls-3" d="M389.32,82.15c-3.17,0-7.2-.7-9.93-1.85l1.01-3.32c3.02.97,6.08,1.54,8.86,1.54,3.38,0,5.36-.94,5.36-2.72,0-1.54-1.3-2.05-6.12-3.72-5.76-2.01-8.17-3.39-8.17-7.11,0-3.96,3.1-5.87,9.57-5.87,2.63,0,6.26.44,8.64,1.07l-.68,3.46c-2.27-.47-5.4-.84-7.88-.84-3.71,0-5.08.5-5.08,2.08,0,1.68,1.51,2.21,6.7,4.09,5.51,2.01,7.59,2.95,7.59,6.71,0,3.96-4.03,6.48-9.86,6.48Z"/>
          <path class="cls-3" d="M401.89,81.78v-4.73h4.86v4.73h-4.86Z"/>
        </g>
      </g>
      <g>
        <path class="cls-5" d="M118.56,44.62c2.81-.11,13.65-.54,20.76,5.8,10.1,9.02,7.02,26.65,4.59,39.49-5.08,26.79-19.08,48.34-23.26,46.93-3.75-1.27.95-19.02-6.09-22.2-2.73-1.23-6.54.04-8.75,1.78-3.13,2.47-2.25,5.26-5.3,10.15-2.88,4.62-7.68,8.55-9.17,7.68-1.53-.9,1.14-6.48,2.44-12.74,4.71-22.68-10.51-44.59-11.53-46.02-7.41-10.38-14.34-12.86-13.06-16.92,1.37-4.36,10.46-1.76,27.74-7.03,11.85-3.61,13.42-6.58,21.64-6.9Z"/>
        <path class="cls-1" d="M93.09,44.61c11.68,3.14,24.42,10.38,23.48,13.65-1.48,5.17-38.89-2.96-40.29,2.48-.21.81.37,1.92,5.08,5.5,12.49,9.48,17.71,9.24,22.19,13.69,8.94,8.87,4.73,26.29,3.09,33.32-2.78,11.88-10.37,26.65-16.62,25.89-3.41-.42-5.36-5.31-6.42-7.89-16.47-39.93-37.11-51.14-30.34-70.12,2.64-7.41,8.75-14.01,16.08-17.05,8.57-3.55,16.69-1.37,23.75.54Z"/>
        <circle class="cls-1" cx="76.05" cy="30.39" r="8.24"/>
        <circle class="cls-5" cx="114.29" cy="32.48" r="8.96"/>
      </g>
    </g>
  </g>
</svg>