<?xml version="1.0" encoding="UTF-8"?>
<svg id="Layer_1" data-name="Layer 1" xmlns="http://www.w3.org/2000/svg" viewBox="0 0 461.35 418.29">
  <defs>
    <style>
      .cls-1, .cls-2, .cls-3, .cls-4, .cls-5 {
        stroke-miterlimit: 10;
      }

      .cls-1, .cls-5 {
        stroke: #3080a0;
      }

      .cls-1, .cls-6 {
        fill: #fff;
      }

      .cls-2 {
        stroke: #fff;
      }

      .cls-2, .cls-3, .cls-5 {
        fill: none;
      }

      .cls-7 {
        fill: #2f80a0;
      }

      .cls-7, .cls-6 {
        stroke-width: 0px;
      }

      .cls-3 {
        stroke: #9da6b6;
      }

      .cls-4 {
        fill: #0c123a;
        stroke: #0c123a;
      }
    </style>
  </defs>
  <path class="cls-7" d="M100.4,321.6c89.15-.16,178.3-.32,267.45-.48-10.9,13.53-42.38,49.45-90.16,63.86-23.22,7-44.39,7.15-47.02,7.15-4.27,0-24.77-.17-47.02-7.15-46.31-14.51-74.01-50.31-83.25-63.38Z"/>
  <path class="cls-7" d="M388,234.8c0,8.06-.61,15.98-1.78,23.72H75.12c-1.17-7.74-1.78-15.66-1.78-23.72,0-86.89,70.44-157.32,157.33-157.32s157.33,70.43,157.33,157.32Z"/>
  <circle class="cls-2" cx="231.88" cy="234.62" r="131.26"/>
  <g>
    <path class="cls-6" d="M162.25,105.48c14.84-7.02,26.2,13.66,59.01,9.57,13.19-1.65,20.63-6.38,28.18-1.59,2.64,1.67,8.41,6.48,10.1,27.64,1.28,15.99-.78,28.68-9.57,62.73-9.84,38.16-13.8,47.59-19.14,47.84-4.1.19-7.84-5.09-10.63-9.04-5.47-7.74-4.03-12.52-9.04-22.86-3.91-8.08-6.06-12.52-9.57-13.29-12.96-2.86-29.33,47.71-40.4,45.19-5.98-1.36-7.53-17.02-8.51-30.3-5.24-71.76-7.87-107.64,9.57-115.89Z"/>
    <path class="cls-3" d="M170.76,118.23c23.2-2.05,31.42,2.9,34.55,7.97,4.05,6.56.88,15.38,6.91,20.2,3.86,3.09,9.22,2.74,12.76,2.13"/>
    <path class="cls-3" d="M232.95,123.02c-25.06,12.83-20.73,23.39-20.73,23.39"/>
  </g>
  <g>
    <path class="cls-1" d="M300.01,152.87c-10.18-4.82-17.97,9.37-40.48,6.56-9.05-1.13-14.15-4.37-19.33-1.09-1.81,1.15-5.77,4.45-6.93,18.96-.88,10.97.54,19.67,6.56,43.03,6.75,26.18,9.46,32.65,13.13,32.82,2.82.13,5.38-3.49,7.29-6.2,3.75-5.31,2.77-8.59,6.2-15.68,2.68-5.54,4.16-8.59,6.56-9.12,8.89-1.96,20.12,32.73,27.71,31,4.1-.94,5.17-11.67,5.83-20.79,3.6-49.22,5.4-73.84-6.56-79.49Z"/>
    <path class="cls-3" d="M294.17,161.62c-5.5,5.63-10.67,9.58-14.55,12.21-7.74,5.25-12.39,6.68-13.9,7.12-3.55,1.02-6.62,1.35-8.75,1.46"/>
    <path class="cls-3" d="M251.51,164.9c17.19,8.8,14.22,16.04,14.22,16.04"/>
  </g>
  <g>
    <path class="cls-4" d="M37.67,277.37h-18.19v11.71h17.09v2.2h-17.09v14.66h-2.54v-30.81h20.74v2.24Z"/>
    <path class="cls-4" d="M51.83,275.12h3.41l13.87,30.81h-2.74l-4.61-10.25h-16.47l-4.61,10.25h-2.74l13.87-30.81ZM60.81,293.47l-7.25-16.24-7.3,16.24h14.54Z"/>
    <path class="cls-4" d="M75.16,275.12h3.36l11.71,16.11,11.71-16.11h3.41v30.81h-2.54v-28.08l-12.43,17.12h-.29l-12.39-17.12v28.08h-2.54v-30.81Z"/>
    <path class="cls-4" d="M114.42,275.12h2.54v30.81h-2.54v-30.81Z"/>
    <path class="cls-4" d="M128.53,303.68h17.09v2.24h-19.63v-30.81h2.54v28.56Z"/>
    <path class="cls-4" d="M145.33,275.12l11.04,16.72,11.04-16.72h2.93l-12.67,19.23v11.57h-2.59v-11.44l-12.67-19.36h2.93Z"/>
    <path class="cls-4" d="M191.02,275.12h10.99c9.79,0,17.23,6.34,17.23,15.4s-7.54,15.4-17.23,15.4h-10.99v-30.81ZM202.11,303.68c8.21,0,14.54-5.41,14.59-13.16,0-7.7-6.38-13.16-14.59-13.16h-8.54v26.32h8.54Z"/>
    <path class="cls-4" d="M247.57,277.37h-18.19v11.53h17.09v2.24h-17.09v12.54h18.19v2.24h-20.74v-30.81h20.74v2.24Z"/>
    <path class="cls-4" d="M278.58,303.11l-.19-15.1v-12.89h2.54v30.81h-3.41l-21.07-27.99.19,15.1v12.9h-2.54v-30.81h3.36l21.12,27.99Z"/>
    <path class="cls-4" d="M312.37,277.37h-11.42v28.56h-2.54v-28.56h-11.42v-2.24h25.39v2.24Z"/>
    <path class="cls-4" d="M318.71,275.12h2.54v30.81h-2.54v-30.81Z"/>
    <path class="cls-4" d="M354.13,297.57c0,5.94-5.42,8.85-12.05,8.85-8.5,0-12.91-3.96-14.07-9.42h2.54c1.3,4.67,5.04,7.22,11.42,7.22,5.81,0,9.6-2.33,9.6-6.51,0-3.96-3.5-4.84-10.42-6.25-7.63-1.58-12.19-3.08-12.19-8.23,0-5.41,5.18-8.58,11.71-8.58,7.3,0,11.52,3.12,12.91,7.53h-2.54c-1.54-3.39-5.04-5.33-10.27-5.33s-9.26,2.33-9.26,6.47c0,2.99,2.26,4.22,10.22,5.85,7.54,1.54,12.38,2.82,12.38,8.41Z"/>
    <path class="cls-4" d="M382.79,277.37h-11.42v28.56h-2.54v-28.56h-11.42v-2.24h25.39v2.24Z"/>
    <path class="cls-4" d="M389.07,275.12h12.72c7.54,0,11.33,4,11.33,9.2s-3.6,8.98-10.56,9.29l11.62,12.32h-3.22l-11.52-12.32h-7.78v12.32h-2.59v-30.81ZM401.6,291.49c6.19,0,8.98-3.26,8.98-7.13s-2.78-7-8.98-7h-9.94v14.13h9.94Z"/>
    <path class="cls-4" d="M419.41,275.12l11.04,16.72,11.04-16.72h2.93l-12.67,19.23v11.57h-2.59v-11.44l-12.67-19.36h2.93Z"/>
  </g>
  <line class="cls-5" x1="11.93" y1="264.93" x2="449.42" y2="264.93"/>
  <line class="cls-5" x1="11.93" y1="316.19" x2="449.42" y2="316.19"/>
  <g>
    <path class="cls-4" d="M56.13,118.41l5.09,2.85,10.71,35.36,12.24-21.84,4,2.24-14.94,26.67-4.83-2.71-10.76-35.89-12.35,22.04-4-2.24,14.84-26.49Z"/>
    <path class="cls-4" d="M69.76,100.73l11.3,10.73,16.4-17.27-11.3-10.73,3.59-3.78,26.87,25.51-3.59,3.78-12.23-11.61-16.4,17.27,12.23,11.61-3.59,3.78-26.87-25.51,3.59-3.78Z"/>
    <path class="cls-4" d="M108.46,65.67l21.79,29.97-4.22,3.07-21.79-29.97,4.22-3.07Z"/>
    <path class="cls-4" d="M123,55.86l10.71-5.54c7.55-3.9,12.7-3.19,15.46,2.15,1.99,3.84,1.3,7.4-2.06,10.66l-.48.46.72-.25c5.53-2,9.51-.67,11.92,4.01,3.12,6.03.92,10.99-6.6,14.87l-12.66,6.55-17.02-32.91ZM129.74,57.54l5.15,9.96,5.62-2.88c4.86-2.51,6.42-5.45,4.68-8.81-1.7-3.29-5.16-3.59-10.38-.9l-5.07,2.62ZM136.83,71.27l5.7,11.02,6.7-3.44c5.08-2.63,6.68-5.75,4.81-9.36-1.93-3.73-5.83-4.07-11.72-1.03l-5.49,2.81Z"/>
    <path class="cls-4" d="M165.49,37l11.95,35.08-4.94,1.68-11.95-35.07,4.94-1.68Z"/>
    <path class="cls-4" d="M216.48,26.16l5.76,36.6-6.75,1.06-26.86-26.63,4.74,30.11-5.15.81-5.76-36.6,6.81-1.07,26.82,26.72-4.75-30.19,5.15-.81Z"/>
    <path class="cls-4" d="M263.86,28.09l-3.86,32.92c-1,8.48-4.74,12.34-11.25,11.58-.56-.07-1.14-.17-1.74-.31l.54-4.58.29.03c4.03.47,6.41-2.38,7.13-8.57l3.71-31.68,5.18.61Z"/>
    <path class="cls-4" d="M284.25,31.83l-7.96,36.19-5.09-1.12,7.96-36.19,5.09,1.12Z"/>
    <path class="cls-4" d="M323.06,44.12l12.33,6.62c4.05,2.17,7.01,4.26,8.88,6.25,1.87,1.99,3.08,4.35,3.64,7.07.84,4.07.08,8.3-2.28,12.7-2.53,4.7-5.96,7.86-10.29,9.48-4.76,1.8-10.4.95-16.92-2.55l-12.89-6.92,17.53-32.64ZM325.48,50.63l-13.19,24.56,7.66,4.11c9.12,4.9,15.93,3.16,20.44-5.23,2.3-4.29,2.81-7.97,1.51-11.05-1.3-3.08-4.61-6.05-9.93-8.91l-6.48-3.48Z"/>
    <path class="cls-4" d="M349.6,95.78l-4.13,5.42-4.31-3.29,4.13-5.42,4.31,3.29Z"/>
    <path class="cls-4" d="M379.56,80.68l9.59,10.19c3.15,3.35,5.3,6.26,6.44,8.74,1.14,2.48,1.54,5.1,1.21,7.86-.49,4.12-2.55,7.9-6.19,11.32-3.89,3.66-8.14,5.57-12.76,5.73-5.08.2-10.16-2.4-15.23-7.78l-10.03-10.65,26.97-25.4ZM379.79,87.63l-20.29,19.11,5.96,6.33c7.1,7.54,14.11,8.04,21.04,1.52,3.54-3.34,5.19-6.67,4.94-10s-2.45-7.2-6.6-11.6l-5.05-5.36Z"/>
    <path class="cls-4" d="M388.21,138.15l-5.67,3.77-3-4.51,5.67-3.77,3,4.51Z"/>
    <path class="cls-4" d="M423.93,160.4l-2.37-5.06c3.01-2.22,3.6-5.31,1.74-9.26-.95-2.03-2.18-3.46-3.7-4.28-1.52-.83-3.02-.89-4.51-.19-2.06.97-2.96,3.8-2.68,8.49l.37,5.97c.22,3.76-.06,6.58-.85,8.46-.79,1.88-2.29,3.35-4.52,4.39-3.13,1.47-6.14,1.43-9.04-.1-2.9-1.53-5.32-4.38-7.27-8.54-3.53-7.54-2.49-13.26,3.14-17.15l2.56,5.46-.38.27c-2.87,2.2-3.27,5.49-1.22,9.88,1.06,2.26,2.43,3.87,4.11,4.84,1.68.97,3.32,1.08,4.91.34,2.2-1.03,3.15-3.88,2.85-8.57l-.35-5.34c-.24-3.92.04-6.88.84-8.89.8-2.01,2.32-3.54,4.57-4.59,6.14-2.88,11.09-.33,14.82,7.64,3.38,7.22,2.46,12.58-2.78,16.08l-.26.15Z"/>
  </g>
</svg>