<?xml version="1.0" encoding="UTF-8"?>
<svg xmlns="http://www.w3.org/2000/svg" version="1.1" viewBox="0 0 461.4 161.3">
  <defs>
    <style>
      .cls-1 {
        fill: #3180a0;
      }

      .cls-1, .cls-2 {
        stroke-width: 0px;
      }

      .cls-3, .cls-4 {
        mix-blend-mode: soft-light;
      }

      .cls-3, .cls-5 {
        isolation: isolate;
      }

      .cls-3, .cls-6 {
        fill: #2568a5;
        stroke: #2568a5;
        stroke-miterlimit: 10;
      }

      .cls-2 {
        fill: #8dc0cc;
      }
    </style>
  </defs>
  <g class="cls-5">
    <g id="Layer_1" data-name="Layer 1">
      <g>
        <g>
          <path class="cls-1" d="M176.1,95.3h-9.9v6.4h9.3v1.2h-9.3v8h-1.4v-16.7h11.3v1.2h0Z"/>
          <path class="cls-1" d="M183.8,94.1h1.9l7.5,16.7h-1.5l-2.5-5.6h-8.9l-2.5,5.6h-1.5l7.5-16.7h0ZM188.6,104l-3.9-8.8-4,8.8h7.9Z"/>
          <path class="cls-1" d="M196.4,94.1h1.8l6.4,8.8,6.4-8.8h1.9v16.7h-1.4v-15.2l-6.8,9.3h-.2l-6.7-9.3v15.2h-1.4v-16.7h0Z"/>
          <path class="cls-1" d="M217.8,94.1h1.4v16.7h-1.4v-16.7Z"/>
          <path class="cls-1" d="M225.4,109.6h9.3v1.2h-10.7v-16.7h1.4v15.5h0Z"/>
          <path class="cls-1" d="M234.6,94.1l6,9.1,6-9.1h1.6l-6.9,10.4v6.3h-1.4v-6.2l-6.9-10.5h1.6,0Z"/>
          <path class="cls-1" d="M259.4,94.1h6c5.3,0,9.4,3.4,9.4,8.4s-4.1,8.4-9.4,8.4h-6v-16.7h0ZM265.4,109.6c4.5,0,7.9-2.9,7.9-7.2,0-4.2-3.5-7.2-7.9-7.2h-4.6v14.3h4.6Z"/>
          <path class="cls-1" d="M290.1,95.3h-9.9v6.3h9.3v1.2h-9.3v6.8h9.9v1.2h-11.3v-16.7h11.3v1.2h0Z"/>
          <path class="cls-1" d="M306.9,109.3v-8.2c-.1,0-.1-7-.1-7h1.4v16.7h-1.9l-11.4-15.2v8.2c.1,0,.1,7,.1,7h-1.4v-16.7h1.8l11.5,15.2h0Z"/>
          <path class="cls-1" d="M325.3,95.3h-6.2v15.5h-1.4v-15.5h-6.2v-1.2h13.8v1.2h0Z"/>
          <path class="cls-1" d="M328.7,94.1h1.4v16.7h-1.4v-16.7Z"/>
          <path class="cls-1" d="M348,106.3c0,3.2-2.9,4.8-6.5,4.8s-7-2.2-7.6-5.1h1.4c.7,2.5,2.7,3.9,6.2,3.9s5.2-1.3,5.2-3.5-1.9-2.6-5.7-3.4c-4.1-.9-6.6-1.7-6.6-4.5s2.8-4.7,6.4-4.7,6.3,1.7,7,4.1h-1.4c-.8-1.8-2.7-2.9-5.6-2.9s-5,1.3-5,3.5,1.2,2.3,5.5,3.2c4.1.8,6.7,1.5,6.7,4.6h0Z"/>
          <path class="cls-1" d="M363.5,95.3h-6.2v15.5h-1.4v-15.5h-6.2v-1.2h13.8v1.2h0Z"/>
          <path class="cls-1" d="M366.9,94.1h6.9c4.1,0,6.1,2.2,6.1,5s-2,4.9-5.7,5.1l6.3,6.7h-1.8l-6.3-6.7h-4.2v6.7h-1.4v-16.7h0ZM373.7,103c3.4,0,4.9-1.8,4.9-3.9s-1.5-3.8-4.9-3.8h-5.4v7.7s5.4,0,5.4,0Z"/>
          <path class="cls-1" d="M383.4,94.1l6,9.1,6-9.1h1.6l-6.9,10.4v6.3h-1.4v-6.2l-6.9-10.5h1.6,0Z"/>
        </g>
        <g class="cls-4">
          <path class="cls-6" d="M163.7,81.8v-3.8l14-14.8h-13.6v-3.7h19.1v3.8l-13.9,14.9h14.2v3.7h-19.8Z"/>
          <path class="cls-6" d="M202.4,81.8v-9.4h-11.2v9.4h-4.6v-22.3h4.6v9.1h11.2v-9.1h4.6v22.4h-4.6Z"/>
          <path class="cls-6" d="M212.1,81.8v-22.3h4.6v22.3h-4.6Z"/>
          <path class="cls-6" d="M234.1,81.8h-12.2v-22.3h11.1c4.7,0,7.4,2.3,7.4,5.8s-1,3.9-3.7,4.8c3.2.9,4.6,3.2,4.6,5.4,0,3.2-2.7,6.4-7.1,6.4h0ZM231.9,62.8h-5.6v6h5.5c2.4,0,3.9-1.1,3.9-3.1s-1.4-2.9-3.9-2.9h0ZM232.8,72h-6.4v6.3h6.4c2.5,0,3.8-1.2,3.8-3.2s-1.2-3.2-3.8-3.2Z"/>
          <path class="cls-6" d="M244.2,81.8v-22.3h4.6v22.3h-4.6Z"/>
          <path class="cls-6" d="M270.4,81.8l-12-15.6v15.6h-4.5v-22.3h4.5l12,15.6v-15.6h4.5v22.3h-4.5Z"/>
          <path class="cls-6" d="M288.4,81.9h-3.6v-3.4h3.5c2.4,0,3.2-1.5,3.2-3.7v-11.8h-6.2v-3.5h10.8v15.4c0,4.3-2.4,7.1-7.7,7.1h0Z"/>
          <path class="cls-6" d="M300.8,81.8v-22.3h4.6v22.3h-4.6Z"/>
          <path class="cls-6" d="M322.2,81.8h-5.4v-22.3h5.4c9,0,15.1,4.7,15.1,11.2s-6.1,11.2-15.1,11.2h0ZM323,63.2h-1.7v14.8h1.7c5,0,9.4-2.3,9.4-7.4s-4.4-7.4-9.4-7.4Z"/>
          <path class="cls-6" d="M339.5,81.8v-4.7h4.9v4.7h-4.9Z"/>
          <path class="cls-6" d="M354.1,81.8h-5.4v-22.3h5.4c9,0,15.1,4.7,15.1,11.2s-6.1,11.2-15.1,11.2h0ZM355,63.2h-1.7v14.8h1.7c5,0,9.4-2.3,9.4-7.4s-4.4-7.4-9.4-7.4Z"/>
          <path class="cls-6" d="M371.5,81.8v-4.7h4.9v4.7h-4.9Z"/>
          <path class="cls-6" d="M389.3,82.2c-3.2,0-7.2-.7-9.9-1.8l1-3.3c3,1,6.1,1.5,8.9,1.5s5.4-.9,5.4-2.7-1.3-2.1-6.1-3.7c-5.8-2-8.2-3.4-8.2-7.1s3.1-5.9,9.6-5.9,6.3.4,8.6,1.1l-.7,3.5c-2.3-.5-5.4-.8-7.9-.8-3.7,0-5.1.5-5.1,2.1s1.5,2.2,6.7,4.1c5.5,2,7.6,2.9,7.6,6.7s-4,6.5-9.9,6.5h0Z"/>
          <path class="cls-6" d="M401.9,81.8v-4.7h4.9v4.7h-4.9Z"/>
        </g>
      </g>
      <path class="cls-2" d="M117.2,48.9c2.4,0,11.4-.4,17.5,4.9,8.5,7.6,5.9,22.4,3.9,33.2-4.3,22.5-16,40.6-19.6,39.4-2.9-1,1.2-15.2-5.1-18.6-2.1-1.2-4.5-.7-6.4,0-.3,1.1-.8,2.6-1.3,4.4-1.4,4.3-2.4,7.1-4.1,9.8-1.6,2.4-5,6.6-6.6,6-1.8-.8.4-7,1-14.4.2-1.9,1.8-22.5-9.7-38.6-6.2-8.7-12-10.8-11-14.2,1.2-3.7,8.8-1.5,23.3-5.9,2.6-.8,7.1-4,14.1-5.3,1.7-.3,3.1-.4,4-.5h0Z"/>
      <path class="cls-3" d="M95.8,48.9c9.8,2.6,20.5,8.7,19.7,11.5-1.3,4.4-32.7-2.5-33.8,2.1-.2.7.3,1.6,4.3,4.6,10.5,8,14.9,7.7,18.6,11.5,7.5,7.5,3.9,22.1,2.6,28-2.4,10-8.7,22.4-13.9,21.7-2.9-.3-4.5-4.4-5.4-6.6-13.9-33.5-31.1-42.9-25.4-58.9,2.2-6.2,7.4-11.8,13.5-14.3,7.2-2.9,14-1.2,20,.4h-.2Z"/>
    </g>
  </g>
</svg>