<?xml version="1.0" encoding="UTF-8"?>
<svg xmlns="http://www.w3.org/2000/svg" version="1.1" viewBox="0 0 461.4 161.3">
  <defs>
    <style>
      .cls-1 {
        fill: #b15553;
      }

      .cls-1, .cls-2, .cls-3, .cls-4, .cls-5, .cls-6, .cls-7, .cls-8, .cls-9, .cls-10, .cls-11, .cls-12, .cls-13, .cls-14, .cls-15, .cls-16, .cls-17, .cls-18, .cls-19, .cls-20, .cls-21, .cls-22, .cls-23, .cls-24, .cls-25, .cls-26, .cls-27 {
        stroke-width: 0px;
      }

      .cls-2 {
        fill: #dbb675;
      }

      .cls-3 {
        fill: #c3c8c1;
      }

      .cls-28, .cls-29, .cls-30, .cls-31, .cls-32, .cls-33, .cls-34, .cls-35 {
        stroke-miterlimit: 10;
      }

      .cls-28, .cls-33, .cls-35 {
        stroke: #0c123a;
      }

      .cls-28, .cls-24, .cls-35 {
        fill: #0c123a;
      }

      .cls-29, .cls-36, .cls-24, .cls-35 {
        mix-blend-mode: soft-light;
      }

      .cls-29, .cls-34 {
        fill: #2568a5;
        stroke: #2568a5;
      }

      .cls-4 {
        fill: #3180a0;
      }

      .cls-5 {
        fill: #fdfdfc;
      }

      .cls-6 {
        fill: #27292e;
      }

      .cls-7 {
        fill: #cd7170;
      }

      .cls-8 {
        fill: #fbeabc;
      }

      .cls-9 {
        fill: #97b1b3;
      }

      .cls-10 {
        fill: #c5d1cd;
      }

      .cls-11 {
        fill: #bf6362;
      }

      .cls-12 {
        fill: #f9dc9f;
      }

      .cls-30, .cls-31 {
        stroke: #3180a0;
      }

      .cls-30, .cls-20 {
        fill: #fff;
      }

      .cls-13 {
        fill: #77a8b7;
      }

      .cls-14 {
        fill: #fdf7eb;
      }

      .cls-31, .cls-32, .cls-33 {
        fill: none;
      }

      .cls-15 {
        fill: #fcfcfb;
      }

      .cls-32 {
        stroke: #3080a0;
      }

      .cls-16 {
        fill: #461a1b;
      }

      .cls-17 {
        fill: #372422;
      }

      .cls-18 {
        fill: #abd4db;
      }

      .cls-19 {
        fill: #efcaa8;
      }

      .cls-20 {
        opacity: 0;
      }

      .cls-21 {
        fill: #b3b3b1;
      }

      .cls-22 {
        fill: #e1e3e0;
      }

      .cls-23 {
        fill: #f8e6cd;
      }

      .cls-37 {
        isolation: isolate;
      }

      .cls-38 {
        display: none;
      }

      .cls-39 {
        fill: #000;
        font-family: Locator-Medium, Locator;
        font-size: 36px;
        font-weight: 500;
      }

      .cls-25 {
        fill: #b8c9c9;
      }

      .cls-26 {
        fill: #8a3234;
      }

      .cls-27 {
        fill: #a14343;
      }
    </style>
  </defs>
  <g class="cls-37">
    <g id="Layer_1" data-name="Layer 1">
      <circle class="cls-33" cx="-865.7" cy="171.8" r="69.2"/>
      <g>
        <path class="cls-24" d="M-343,294.9l-4.9-1.7-13.5-23.3-5.5,16.4-4.8-1.6,7.7-23,4.9,1.6,13.6,23.2,5.8-17.2,4.8,1.6-8,23.8Z"/>
        <path class="cls-24" d="M-325,250.2l-11.5-5.7-6.4,12.8,11.5,5.7-2.6,5.2-27.2-13.6,2.6-5.2,11.1,5.6,6.4-12.8-11.1-5.6,2.6-5.2,27.2,13.6-2.6,5.2Z"/>
        <path class="cls-24" d="M-318.8,241.7l-23.4-19.5,3.8-4.5,23.4,19.5-3.8,4.5Z"/>
        <path class="cls-24" d="M-300,223.7l-12.2,9.5-18.7-24,11.1-8.6c4.7-3.7,9.3-3.3,12.3.4,1.5,1.9,2.3,4.9.3,8.1,4-1.5,7.2-.2,9.1,2.2,2.7,3.5,2.6,9-1.8,12.4ZM-318,205l-5.6,4.4,5,6.4,5.5-4.3c2.4-1.9,2.9-4.3,1.3-6.3s-3.8-2.1-6.3-.1ZM-309.5,214.2l-6.4,5,5.3,6.8,6.4-5c2.5-1.9,2.7-4.3,1.1-6.3-1.5-2-3.9-2.5-6.5-.5Z"/>
        <path class="cls-24" d="M-290.4,217.9l-13.3-27.4,5.3-2.5,13.3,27.4-5.3,2.5Z"/>
        <path class="cls-24" d="M-260.6,208.2l-19.3-17.6,4.5,20.7-5.6,1.2-6.4-29.8,5.6-1.2,19.3,17.6-4.5-20.7,5.6-1.2,6.4,29.8-5.6,1.2Z"/>
        <path class="cls-24" d="M-240.6,208.4l-4.5-.6.6-4.5,4.4.6c3,.4,4.4-1.5,4.8-4.5l2.2-16-7.7-1.1.7-4.8,13.5,1.9-2.9,20.8c-.8,5.8-4.3,9.1-11.1,8.2Z"/>
        <path class="cls-24" d="M-226.2,211l9-29.1,5.6,1.7-9,29.1-5.6-1.7Z"/>
        <path class="cls-24" d="M-203.7,219.6l-5.6-3.9,17.3-25.1,5.6,3.9c9.4,6.5,12.2,16.1,7.1,23.4-5,7.3-15,8.1-24.4,1.6ZM-188.5,199.4l-1.7-1.2-11.4,16.6,1.7,1.2c5.2,3.6,11.6,4.2,15.6-1.5,3.9-5.7,1.1-11.5-4.1-15.1Z"/>
        <path class="cls-24" d="M-190.1,230.7l4.7-4.4,4.2,4.5-4.7,4.4-4.2-4.5Z"/>
        <path class="cls-24" d="M-178.7,243.6l-4.1-5.5,24.5-18.1,4.1,5.5c6.8,9.1,6.3,19.2-.8,24.5s-16.9,2.8-23.6-6.3ZM-157.7,229.4l-1.3-1.7-16.2,12,1.3,1.7c3.8,5.1,9.7,7.7,15.2,3.6,5.5-4.1,4.7-10.5.9-15.6Z"/>
        <path class="cls-24" d="M-167.1,257.3l6.1-2.1,2,5.8-6.1,2.1-2-5.8Z"/>
        <path class="cls-24" d="M-161.8,279.7c-1.6-3.7-2.7-8.8-2.6-12.6l4.7-.6c.3,4.1,1.1,7.9,2.5,11.2,1.7,4,3.8,5.8,6.1,4.8,1.9-.8,1.9-2.6,1.6-9.1-.3-7.8.2-11.4,4.9-13.3,5-2.1,8.9.5,12.1,8.1,1.3,3.1,2.6,7.6,2.9,10.7l-4.7,1c-.5-2.9-1.6-6.8-2.9-9.7-1.8-4.3-3.2-5.7-5.1-4.8-2.1.9-2,2.9-1.8,10,.2,7.5,0,10.5-4.6,12.5-5,2.1-10.1-1.3-13-8.1Z"/>
        <path class="cls-24" d="M-156.7,292.1l6.4-1,1,6.1-6.4,1-1-6.1Z"/>
      </g>
      <path class="cls-4" d="M-1280.8,231.9c16.6-7.3,29.4,14.2,66.1,9.9,14.8-1.7,23.1-6.6,31.6-1.6,3,1.7,9.4,6.7,11.3,28.7,1.4,16.6-.9,29.8-10.7,65.1-11,39.6-15.5,49.4-21.5,49.6-4.6.2-8.8-5.3-11.9-9.4-6.1-8-4.5-13-10.1-23.7-4.4-8.4-6.8-13-10.7-13.8-14.5-3-32.9,49.5-45.3,46.9-6.7-1.4-8.4-17.7-9.5-31.4-5.9-74.5-8.8-111.7,10.7-120.2Z"/>
      <path class="cls-4" d="M-1182.3,273.6c10-4.6,17.5,9.4,39.5,6.9,8.9-1,13.9-4.1,18.9-.8,1.8,1.1,5.6,4.4,6.5,18.6.7,10.7-.8,19.2-6.9,42-6.9,25.5-9.6,31.8-13.2,31.9-2.8,0-5.2-3.5-7.1-6.2-3.6-5.2-2.6-8.4-5.9-15.4-2.6-5.5-4-8.4-6.3-9-8.7-2-20.1,31.8-27.5,30-4-1-4.9-11.5-5.5-20.4-2.9-48.2-4.4-72.3,7.4-77.7Z"/>
      <path class="cls-30" d="M-1275.8,225.4c14.8-7,26.2,13.7,59,9.6,13.2-1.7,20.6-6.4,28.2-1.6,2.6,1.7,8.4,6.5,10.1,27.6,1.3,16-.8,28.7-9.6,62.7-9.8,38.2-13.8,47.6-19.1,47.8-4.1.2-7.8-5.1-10.6-9-5.5-7.7-4-12.5-9-22.9-3.9-8.1-6.1-12.5-9.6-13.3-13-2.9-29.3,47.7-40.4,45.2-6-1.4-7.5-17-8.5-30.3-5.2-71.8-7.9-107.6,9.6-115.9Z"/>
      <path class="cls-31" d="M-1267.2,238.1c23.2-2.1,31.4,2.9,34.6,8,4.1,6.6.9,15.4,6.9,20.2,3.9,3.1,9.2,2.7,12.8,2.1M-1205.1,242.9c-25.1,12.8-20.7,23.4-20.7,23.4"/>
      <path class="cls-30" d="M-1138,272.8c-10.2-4.8-18,9.4-40.5,6.6-9.1-1.1-14.1-4.4-19.3-1.1-1.8,1.1-5.8,4.4-6.9,19-.9,11,.5,19.7,6.6,43,6.8,26.2,9.5,32.6,13.1,32.8,2.8.1,5.4-3.5,7.3-6.2,3.8-5.3,2.8-8.6,6.2-15.7,2.7-5.5,4.2-8.6,6.6-9.1,8.9-2,20.1,32.7,27.7,31,4.1-.9,5.2-11.7,5.8-20.8,3.6-49.2,5.4-73.8-6.6-79.5h0Z"/>
      <path class="cls-31" d="M-1143.8,281.5c-5.5,5.6-10.7,9.6-14.5,12.2-7.7,5.2-12.4,6.7-13.9,7.1-3.5,1-6.6,1.4-8.8,1.5M-1186.5,284.8c17.2,8.8,14.2,16,14.2,16"/>
      <g>
        <g>
          <path class="cls-28" d="M-1419.1-37.6h-18.2v11.7h17.1v2.2h-17.1v14.7h-2.5v-30.8h20.7v2.2h0Z"/>
          <path class="cls-28" d="M-1404.9-39.9h3.4l13.9,30.8h-2.7l-4.6-10.2h-16.5l-4.6,10.2h-2.7l13.9-30.8h0ZM-1395.9-21.5l-7.2-16.2-7.3,16.2h14.5Z"/>
          <path class="cls-28" d="M-1381.6-39.9h3.4l11.7,16.1,11.7-16.1h3.4V-9.1h-2.5v-28.1l-12.4,17.1h-.3l-12.4-17.1V-9.1h-2.5v-30.8Z"/>
          <path class="cls-28" d="M-1342.3-39.9h2.5V-9.1h-2.5v-30.8Z"/>
          <path class="cls-28" d="M-1328.2-11.3h17.1v2.2h-19.6v-30.8h2.5V-11.3h0Z"/>
          <path class="cls-28" d="M-1311.4-39.9l11,16.7,11-16.7h2.9l-12.7,19.2v11.6h-2.6v-11.4l-12.7-19.4h2.9,0Z"/>
          <path class="cls-28" d="M-1265.7-39.9h11c9.8,0,17.2,6.3,17.2,15.4s-7.5,15.4-17.2,15.4h-11v-30.8h0ZM-1254.6-11.3c8.2,0,14.5-5.4,14.6-13.2,0-7.7-6.4-13.2-14.6-13.2h-8.5V-11.3h8.5Z"/>
          <path class="cls-28" d="M-1209.2-37.6h-18.2v11.5h17.1v2.2h-17.1v12.5h18.2v2.2h-20.7v-30.8h20.7v2.2h0Z"/>
          <path class="cls-28" d="M-1178.2-11.9l-.2-15.1v-12.9h2.5V-9.1h-3.4l-21.1-28,.2,15.1v12.9h-2.5v-30.8h3.4l21.1,28h0Z"/>
          <path class="cls-28" d="M-1144.4-37.6h-11.4V-9.1h-2.5v-28.6h-11.4v-2.2h25.4v2.2h0Z"/>
          <path class="cls-28" d="M-1138-39.9h2.5V-9.1h-2.5v-30.8Z"/>
          <path class="cls-28" d="M-1102.6-17.4c0,5.9-5.4,8.9-12,8.9s-12.9-4-14.1-9.4h2.5c1.3,4.7,5,7.2,11.4,7.2s9.6-2.3,9.6-6.5-3.5-4.8-10.4-6.2c-7.6-1.6-12.2-3.1-12.2-8.2s5.2-8.6,11.7-8.6,11.5,3.1,12.9,7.5h-2.5c-1.5-3.4-5-5.3-10.3-5.3s-9.3,2.3-9.3,6.5,2.3,4.2,10.2,5.9c7.5,1.5,12.4,2.8,12.4,8.4h0Z"/>
          <path class="cls-28" d="M-1074-37.6h-11.4V-9.1h-2.5v-28.6h-11.4v-2.2h25.4v2.2h0Z"/>
          <path class="cls-28" d="M-1067.7-39.9h12.7c7.5,0,11.3,4,11.3,9.2s-3.6,9-10.6,9.3l11.6,12.3h-3.2l-11.5-12.3h-7.8v12.3h-2.6v-30.8h0ZM-1055.1-23.5c6.2,0,9-3.3,9-7.1s-2.8-7-9-7h-9.9v14.1h9.9Z"/>
          <path class="cls-28" d="M-1037.3-39.9l11,16.7,11-16.7h2.9l-12.7,19.2v11.6h-2.6v-11.4l-12.7-19.4h2.9,0Z"/>
        </g>
        <line class="cls-32" x1="-1444.8" y1="-50.1" x2="-1007.3" y2="-50.1"/>
        <line class="cls-32" x1="-1444.8" y1="1.2" x2="-1007.3" y2="1.2"/>
      </g>
      <g>
        <path class="cls-28" d="M-346.6,389.7h-9.9v6.4h9.3v1.2h-9.3v8h-1.4v-16.7h11.3v1.2h0Z"/>
        <path class="cls-28" d="M-338.9,388.5h1.9l7.5,16.7h-1.5l-2.5-5.6h-8.9l-2.5,5.6h-1.5l7.5-16.7h0ZM-334,398.4l-3.9-8.8-4,8.8h7.9Z"/>
        <path class="cls-28" d="M-326.2,388.5h1.8l6.4,8.7,6.4-8.7h1.9v16.7h-1.4v-15.3l-6.8,9.3h-.2l-6.7-9.3v15.3h-1.4v-16.7Z"/>
        <path class="cls-28" d="M-304.9,388.5h1.4v16.7h-1.4v-16.7Z"/>
        <path class="cls-28" d="M-297.2,404h9.3v1.2h-10.7v-16.7h1.4v15.5h0Z"/>
        <path class="cls-28" d="M-288.1,388.5l6,9.1,6-9.1h1.6l-6.9,10.4v6.3h-1.4v-6.2l-6.9-10.5h1.6,0Z"/>
        <path class="cls-28" d="M-263.3,388.5h6c5.3,0,9.4,3.4,9.4,8.4s-4.1,8.4-9.4,8.4h-6v-16.7h0ZM-257.3,404c4.5,0,7.9-2.9,7.9-7.1,0-4.2-3.5-7.1-7.9-7.1h-4.6v14.3h4.6Z"/>
        <path class="cls-28" d="M-232.6,389.7h-9.9v6.3h9.3v1.2h-9.3v6.8h9.9v1.2h-11.3v-16.7h11.3v1.2h0Z"/>
        <path class="cls-28" d="M-215.7,403.7v-8.2c-.1,0-.1-7-.1-7h1.4v16.7h-1.9l-11.4-15.2v8.2c.1,0,.1,7,.1,7h-1.4v-16.7h1.8l11.5,15.2h0Z"/>
        <path class="cls-28" d="M-197.4,389.7h-6.2v15.5h-1.4v-15.5h-6.2v-1.2h13.8v1.2h0Z"/>
        <path class="cls-28" d="M-193.9,388.5h1.4v16.7h-1.4v-16.7Z"/>
        <path class="cls-28" d="M-174.7,400.7c0,3.2-2.9,4.8-6.5,4.8s-7-2.2-7.6-5.1h1.4c.7,2.5,2.7,3.9,6.2,3.9s5.2-1.3,5.2-3.5-1.9-2.6-5.7-3.4c-4.1-.9-6.6-1.7-6.6-4.5s2.8-4.7,6.4-4.7,6.3,1.7,7,4.1h-1.4c-.8-1.8-2.7-2.9-5.6-2.9s-5,1.3-5,3.5,1.2,2.3,5.6,3.2c4.1.8,6.7,1.5,6.7,4.6h0Z"/>
        <path class="cls-28" d="M-159.1,389.7h-6.2v15.5h-1.4v-15.5h-6.2v-1.2h13.8v1.2h0Z"/>
        <path class="cls-28" d="M-155.7,388.5h6.9c4.1,0,6.2,2.2,6.2,5s-2,4.9-5.7,5l6.3,6.7h-1.7l-6.3-6.7h-4.2v6.7h-1.4v-16.7h0ZM-148.9,397.4c3.4,0,4.9-1.8,4.9-3.9s-1.5-3.8-4.9-3.8h-5.4v7.7h5.4Z"/>
        <path class="cls-28" d="M-139.2,388.5l6,9.1,6-9.1h1.6l-6.9,10.4v6.3h-1.4v-6.2l-6.9-10.5h1.6,0Z"/>
      </g>
      <g>
        <path class="cls-28" d="M-1400.8,224.5l5.1,2.8,10.7,35.4,12.2-21.8,4,2.2-14.9,26.7-4.8-2.7-10.8-35.9-12.3,22-4-2.2,14.8-26.5h0Z"/>
        <path class="cls-28" d="M-1387.2,206.9l11.3,10.7,16.4-17.3-11.3-10.7,3.6-3.8,26.9,25.5-3.6,3.8-12.2-11.6-16.4,17.3,12.2,11.6-3.6,3.8-26.9-25.5,3.6-3.8Z"/>
        <path class="cls-28" d="M-1348.5,171.8l21.8,30-4.2,3.1-21.8-30,4.2-3.1Z"/>
        <path class="cls-28" d="M-1333.9,162l10.7-5.5c7.6-3.9,12.7-3.2,15.5,2.2,2,3.8,1.3,7.4-2.1,10.7l-.5.5.7-.2c5.5-2,9.5-.7,11.9,4,3.1,6,.9,11-6.6,14.9l-12.7,6.6-17-32.9h0ZM-1327.2,163.7l5.1,10,5.6-2.9c4.9-2.5,6.4-5.5,4.7-8.8-1.7-3.3-5.2-3.6-10.4-.9l-5.1,2.6h0ZM-1320.1,177.4l5.7,11,6.7-3.4c5.1-2.6,6.7-5.8,4.8-9.4-1.9-3.7-5.8-4.1-11.7-1l-5.5,2.8h0Z"/>
        <path class="cls-28" d="M-1291.4,143.1l11.9,35.1-4.9,1.7-11.9-35.1,4.9-1.7h0Z"/>
        <path class="cls-28" d="M-1240.4,132.3l5.8,36.6-6.8,1.1-26.9-26.6,4.7,30.1-5.1.8-5.8-36.6,6.8-1.1,26.8,26.7-4.8-30.2,5.1-.8h0Z"/>
        <path class="cls-28" d="M-1193.1,134.2l-3.9,32.9c-1,8.5-4.7,12.3-11.2,11.6-.6,0-1.1-.2-1.7-.3l.5-4.6h.3c4,.5,6.4-2.3,7.1-8.5l3.7-31.7s5.2.6,5.2.6Z"/>
        <path class="cls-28" d="M-1172.7,138l-8,36.2-5.1-1.1,8-36.2s5.1,1.1,5.1,1.1Z"/>
        <path class="cls-28" d="M-1133.9,150.2l12.3,6.6c4,2.2,7,4.3,8.9,6.2,1.9,2,3.1,4.3,3.6,7.1.8,4.1,0,8.3-2.3,12.7-2.5,4.7-6,7.9-10.3,9.5-4.8,1.8-10.4.9-16.9-2.6l-12.9-6.9,17.5-32.6h0ZM-1131.4,156.8l-13.2,24.6,7.7,4.1c9.1,4.9,15.9,3.2,20.4-5.2,2.3-4.3,2.8-8,1.5-11s-4.6-6-9.9-8.9l-6.5-3.5h0Z"/>
        <path class="cls-28" d="M-1107.3,201.9l-4.1,5.4-4.3-3.3,4.1-5.4,4.3,3.3Z"/>
        <path class="cls-28" d="M-1077.4,186.8l9.6,10.2c3.1,3.3,5.3,6.3,6.4,8.7,1.1,2.5,1.5,5.1,1.2,7.9-.5,4.1-2.5,7.9-6.2,11.3-3.9,3.7-8.1,5.6-12.8,5.7-5.1.2-10.2-2.4-15.2-7.8l-10-10.7,27-25.4h0ZM-1077.1,193.8l-20.3,19.1,6,6.3c7.1,7.5,14.1,8,21,1.5,3.5-3.3,5.2-6.7,4.9-10s-2.5-7.2-6.6-11.6l-5-5.4Z"/>
        <path class="cls-28" d="M-1068.7,244.3l-5.7,3.8-3-4.5,5.7-3.8,3,4.5Z"/>
        <path class="cls-28" d="M-1033,266.5l-2.4-5.1c3-2.2,3.6-5.3,1.7-9.3-1-2-2.2-3.5-3.7-4.3-1.5-.8-3-.9-4.5-.2-2.1,1-3,3.8-2.7,8.5l.4,6c.2,3.8,0,6.6-.9,8.5s-2.3,3.4-4.5,4.4c-3.1,1.5-6.1,1.4-9-.1s-5.3-4.4-7.3-8.5c-3.5-7.5-2.5-13.3,3.1-17.1l2.6,5.5-.4.3c-2.9,2.2-3.3,5.5-1.2,9.9,1.1,2.3,2.4,3.9,4.1,4.8s3.3,1.1,4.9.3c2.2-1,3.1-3.9,2.9-8.6l-.4-5.3c-.2-3.9,0-6.9.8-8.9s2.3-3.5,4.6-4.6c6.1-2.9,11.1-.3,14.8,7.6,3.4,7.2,2.5,12.6-2.8,16.1h-.3c0,.1,0,.1,0,.1Z"/>
      </g>
      <g id="Background" class="cls-38">
        <path class="cls-22" d="M-498.3-11c-2.2,169.2.3,338.3-.8,507.5l-508.8-.5V-11h509.5Z"/>
        <path class="cls-22" d="M-498.3-11h2.5V501h-512v-5l508.8.5c1.1-169.2-1.5-338.3.8-507.5Z"/>
      </g>
      <path class="cls-4" d="M-853.4,139.2l-.4,2.7c-3.4.5-8.9,4.2-12.5,4-5.6-.2-12.5-8.5-21.3-3.3-6.3,3.7-5.7,14.5-3.4,20.4,2.1,5.3,9.2,11.5,8.2,24.9-.2,2.8-1.8,9.6-3.6,11.8,0-3.9.5-7.8.4-11.8-.6-17.2-7.1-20.1-9.2-24.5-2.6-5.4-.5-8.3-3.6-7.6-.2-5.6,1.3-10.8,5.7-14.6,9.1-7.8,19.8-1.4,24.7-1,4.9.5,10-1.4,15-1.1Z"/>
      <path class="cls-6" d="M-837.7,164.8c-.5,1.7-2.5,5.7-2.7,6.7-.5,3.4,1.1,11.1-3.1,22.2-3,7.9-12.3,20.2-17.2,13.3-1.3-1.8-2.1-10.3-1.9-12.6-3.6,6.6-13.6,16.1-21.5,14.4-2-.4-4-2.3-4.3-4.3-1.1-7,3-21.8-4.6-34.4-3.2-5.3-5.4-5.5-5.7-14.2,3.1-.8,1,2.1,3.6,7.6,2.1,4.4,8.6,7.3,9.2,24.5.1,3.9-.4,7.9-.4,11.8,0,4.6.2,8.4,7.5,6.1,9.7-3,15.1-14.6,16.9-16.5,1.7-3.3,5.1-12.2,7.9-14,7.7-4.8,5.6,16.7-1.4,24.8-3.1,3.6-5.2,2.8-4,5.1,4.5,4.8,11.7-7,13.4-11,4.7-11,3-19.5,3.6-23.4.4-2.5,7.1-11.9,1.3-22.2-2.5-4.4-7.6-7.6-12.6-6.8l.4-2.7c13.6.6,19,13.6,15.7,25.6Z"/>
      <path class="cls-15" d="M-853.8,141.9c5.1-.8,10.2,2.4,12.6,6.8,5.8,10.3-1,19.8-1.3,22.2-.6,3.9,1.1,12.3-3.6,23.4-1.7,4-8.9,15.8-13.4,11-1.2-2.3.9-1.5,4-5.1,7-8.1,9.1-29.6,1.4-24.8-2.8,1.8-6.2,10.7-7.9,14-1.7,1.9-7.2,13.5-16.9,16.5-7.3,2.3-7.5-1.5-7.5-6.1,1.8-2.2,3.4-9,3.6-11.8,1-13.4-6.1-19.6-8.2-24.9-2.3-5.9-2.9-16.7,3.4-20.4,8.8-5.2,15.7,3,21.3,3.3,3.6.2,9.2-3.5,12.5-4Z"/>
      <path class="cls-6" d="M-882.3,143.6c7-.7,12.8,7,19.7,5.4,3.2-.7,13.5-9.9,19.4.3,2.4,4.1,3.1,13.3,0,11.5,1.1-4.2-1.3-14.8-7.2-13.3-2.6.7-8.8,6.7-15.7,5.7-3.2-.4-8.7-5.2-10.5-5.4-6.1-.5-7.1,12.4-1.6,20.2,2.8,4,8.1,6.4,8.8,11.7,1.2,8.8-4.9,20.4-14.1,22.7,4.4-7.2,7.3-18.8,3.5-26.7-2.3-4.8-11.5-11.2-10.3-22.8.4-4.3,3.3-8.8,7.9-9.3Z"/>
      <g>
        <g id="Background-2" data-name="Background" class="cls-38">
          <path class="cls-10" d="M-783.4,234.2V95.9h139.4v139.4c-.2,0-.5,0-.7,0,.1-.7-.5-.2-.9-.5-46-.8-91.9,0-137.9-.5Z"/>
          <path class="cls-10" d="M-644.7,235.3h-138.8v-1.1c46,.5,91.9-.2,137.9.5.4.3,1-.2.9.5Z"/>
        </g>
        <g>
          <path class="cls-14" d="M-738.1,133.9c-.9,1.2-1.7,2.9-2,4.4-.3,1.6-.4,3.8-.3,5.4.1,2.4.8,5.8,1.4,8.2,1.6,6.4,4.5,11.8,6,16.3,1.9,6,1.4,9.2,2.2,14.8.8,5.4,3.1,12.8,6.3,17.2-.3.4-1.1.2-1.8.3-1,0-7.5.8-7.2,2.1.3,1.1,8.4,2.6,9.7,2.8,8.4,1.1,23,.9,30.7-2.9.9-1.4-5.2-1.6-6.1-2,3.2-6.2,4.9-12.7,5.4-19.7.3-4.3-.2-8.7,1-12.9.7-2.8,3.6-8,4.8-11.3,2-5.7,3.8-14,1.9-19.8-.1-.4-.3-.8-.5-1.2,1.2.4,2.9-.2,4.2-.5,8.1,11.5,10.9,24.3,10.1,38.3-.6,10.1-5.1,24.4-13.4,30.8-11.6,8.9-40.5,9-52.8,1.8-9.7-5.7-15.3-20.7-16.1-31.4-1.2-15,2-30.7,12-42.3.6.6,1.7.7,2.5,1.1.9.4,1.1,1.3,2.2.5Z"/>
          <path class="cls-5" d="M-682.5,135c-1.3.3-3,1-4.2.5-.6-1.2-1.5-2.6-2.9-3-2.4-1.7-5-1.2-7.6-.7-4.4-5.4-9.9-1-14.9.8,0,.1,1.1,1.2,1.3,1.4v.4c-.7-.5-1.4-1.6-1.7-1.8,0,0-.3.3-.5.1-1-.5-4.3-2.3-4.7-2.5-5.8-2.2-6.4.8-9.3,1-2.4,0-5.9-3-10.3,1.8-.2.2-.1.3-.1.3-.2.2-.4.3-.5.5-1.2.8-1.3-.2-2.2-.5-.9-.3-1.9-.5-2.5-1.1,9.6-11.2,26.6-13,40.2-10.2,9.1,1.9,14.8,5.4,20.1,12.9Z"/>
          <g>
            <path class="cls-23" d="M-726.4,200.5c-3.2,2.3,2.7,2.9,4.3,2.9v-.3c.5.3,1.2.3,1.8.4.7.1.5,0,.5,0,0,0,0,0,.1,0,0,0,.4.3.5.3,4.1.4,11.6.2,15.6-.5.2,0,.4,0,.7-.1,1.2-.3,1.7-.3,2.9-.8,1.2-.5,2.4-.9.1-.7.2-.4.3-.7.5-1.1.9.3,7,.6,6.1,2-7.7,3.8-22.3,4.1-30.7,2.9-1.3-.2-9.5-1.7-9.7-2.8-.3-1.3,6.2-2,7.2-2.1Z"/>
            <path class="cls-12" d="M-722.2,203.1v.3c-1.5,0-7.4-.5-4.2-2.9.7,0,1.4.2,1.8-.3.3.4,2.2,2.7,2.5,2.9Z"/>
            <path class="cls-19" d="M-700,202.2c-.3-.4.1-.6.1-.7,2.3-.2,1,.2-.1.7Z"/>
          </g>
          <g>
            <path class="cls-12" d="M-697.3,131.8c-.8.3-1.3,1-1.9,1.5-4.4,3.1-7,4.8-11.7.7-.2-.1-1.4-1.3-1.3-1.4,5-1.9,10.5-6.2,14.9-.8Z"/>
            <path class="cls-14" d="M-699.4,135.2c-2.4,1.2-5.1,3.7-9.3,1.2-1-.6-1.5-1.3-2.2-2v-.4c4.9,4.1,7.5,2.4,11.8-.7.7.3-.6,1.4-.3,1.9Z"/>
            <g>
              <path class="cls-2" d="M-699.3,200.5c-.2.4-.4.7-.5,1.1,0,0-.4.3-.1.7-1.2.5-1.7.6-2.9.8,1-7.1,2.6-25.8-2.7-30.9-3.2-3.1-5.9.5-7.4,3.3-1.2,2.3-1.8,4.4-2.3,6.9-.7,3.6-1.9,17.4-2.7,19.2-.2.4-1.4,1.4-1.8,2,0,0,.1.1-.5,0-.2-.9-.5-1.7-.8-2.6.8-4.3,2-8.7,2.6-13.1,1-7.8,0-21.3,4-24.2,3.7-2.6,21.6-2.9,23.6-4.9,1.2-1.2,3.8-11.3,4.3-14.8.4-2.6.7-4.4.4-7.1,1.9,5.9,0,14.1-1.9,19.8-1.2,3.3-4,8.5-4.8,11.3-1.1,4.2-.6,8.6-1,12.9-.6,7-2.3,13.5-5.4,19.7Z"/>
              <path class="cls-8" d="M-689.6,132.5c-3.4-1.1-6.9,1.3-9.8,2.7-.3-.5.9-1.6.3-1.9.7-.5,1.1-1.2,1.9-1.5,2.7-.5,5.3-1,7.6.7Z"/>
              <path class="cls-2" d="M-686.6,143.8c-.5,3.5-3.1,13.7-4.3,14.8-2,2-19.9,2.3-23.6,4.9-4.1,2.9-3,16.3-4,24.2-.6,4.4-1.7,8.8-2.6,13.1-5.5-16.2-1.2-23.4-2.3-34-.5-5.2-4.4-15.7-4.2-19.8,0-.5.2-1.1.2-1.6,9.7,1.3,32.6,2.8,40.8-1.6Z"/>
              <g>
                <path class="cls-16" d="M-702.8,203.1c-.2,0-.4,0-.7.1-1.2-.6-1.5-2.3-1.8-3.5-1.3-5.7-1.3-15.5-3.4-20.8.4-.4-.6-1.1,0-1.6.7-.2,2.6-2,4.5-2.1,0-1.3-1.5-2.5-1.4-2.9,5.4,5.1,3.7,23.8,2.7,30.9Z"/>
                <path class="cls-16" d="M-705.6,172.1c-.2.4,1.4,1.7,1.4,2.9-1.9.1-3.8,1.9-4.5,2.1-.9.2-1.5-3.3-4-.5-.7-.6-.2-.5-.2-1.2,1.4-2.8,4.2-6.3,7.4-3.3Z"/>
                <path class="cls-17" d="M-708.7,177.2c-.6.5.4,1.2,0,1.6-.2-.4-.6-1.6-.8-1.8-4.7-6.4-5.6,17.1-6.9,22.7-.6,2.3-.7,2.8-3.1,3.8,0,0,0,0-.1,0,.4-.5,1.6-1.5,1.8-2,.8-1.8,2-15.6,2.7-19.2.5-2.5,1.2-4.6,2.3-6.9,0,.7-.5.7.2,1.2,2.5-2.7,3.1.8,4,.5Z"/>
              </g>
              <g>
                <path class="cls-12" d="M-711,134.4c.8.7,1.3,1.5,2.2,2,4.3,2.5,6.9,0,9.3-1.2,2.9-1.4,6.4-3.8,9.8-2.7,1.3.4,2.3,1.8,2.9,3,.2.4.4.8.5,1.2.3,2.7,0,4.5-.4,7.1-8.2,4.4-31,3-40.8,1.6,0,.5-.2,1.1-.2,1.6-.4-3.5,0-9,1.6-12.1,0-.2.3-.5.4-.7,1.8-2.7,4.6-3.9,7.8-3.9.4.1,3.7,1.9,4.7,2.5.3.1.5-.1.5-.1.3.1,1,1.3,1.6,1.8Z"/>
                <path class="cls-14" d="M-720.3,132.7c1.2,0-.6.5-1.6,1.8-2.3,3.2-1.1,7.7-3.3,6.9-.8-.7.3-8,4.9-8.7Z"/>
              </g>
            </g>
            <g>
              <path class="cls-26" d="M-727.6,147.1c-.2,4.1,3.7,14.7,4.2,19.8,1.1,10.5-3.1,17.7,2.3,34,.3.9.6,1.7.8,2.6-.6-.1-1.3-.1-1.9-.4-.3-.1-2.1-2.4-2.5-2.9-3.2-4.5-5.5-11.8-6.3-17.2-.8-5.7-.2-8.8-2.2-14.8-1.5-4.5-4.4-9.9-6-16.3.3,0,.3.2.4.5.6,1.8,1,3.6,1.6,5.4,1.4,3.9,4.2,9.4,5,13.2,1.2,5.3.6,13.3,3.2,19.8q.5-7.7,1-15.3c.5-3.5,2.8-4.8,2.6-9-.1-3.2-4.3-13.3-3.7-20.2,1.5-1.4.6-2.1.8-4.6.1-1.3.5-2.5.5-3.7.3-1.6,1.6-2.3,0-2.5l1.5-.5c-1.7,3.1-2,8.6-1.6,12.1Z"/>
              <path class="cls-27" d="M-728.8,146.3c-1.6,1.6-7.5,4.7-9.8,6.1-.1-.4-.1-.6-.4-.5-.6-2.4-1.2-5.7-1.4-8.2.7.3-.3,2.1,1,1.6.7-.2,9.4-6,11-6.9,0,0,.6-.2,1-.4,0,1.3-.4,2.5-.5,3.7-.3,2.5.7,3.1-.8,4.6Z"/>
              <path class="cls-1" d="M-727.5,135.5c1.6.1.3.9,0,2.5-.4.3-.9.4-1,.4-2.2.8-6.3.9-8.8.7-.8,0-2.8-.3-2.9-.8.3-1.5,1.2-3.1,2-4.4.2-.3.4-.4.5-.5,1.4,1,6.9,2.2,8.5,2.3,0,0,.3-.2,1.6-.1Z"/>
              <path class="cls-27" d="M-728.4,138.4c-1.6,1-10.3,6.7-11,6.9-1.4.4-.3-1.4-1-1.6,0-1.7,0-3.8.3-5.4.2.5,2.1.8,2.9.8,2.5.2,6.6.1,8.8-.7Z"/>
              <path class="cls-7" d="M-717.8,130.3c-3.1,0-6,1.2-7.8,3.9-3.8-1.2-7.9-1.9-11.8-1.2,4.4-4.7,7.9-1.7,10.3-1.8,2.9-.1,3.6-3.1,9.3-1Z"/>
              <path class="cls-11" d="M-725.6,134.3c-.1.2-.3.5-.4.7l-1.5.5c-1.3-.1-1.5.1-1.6.1-1.6-.2-7.2-1.3-8.5-2.3,0,0,0,0,.1-.3,3.9-.6,8,0,11.8,1.2Z"/>
              <path class="cls-26" d="M-738.7,152.4c2.3-1.4,8.2-4.6,9.8-6.1-.6,6.9,3.5,17.1,3.7,20.2.2,4.2-2.1,5.5-2.6,9q-.5,7.7-1,15.3c-2.6-6.5-2-14.5-3.2-19.8-.9-3.8-3.6-9.3-5-13.2-.6-1.8-1-3.6-1.6-5.4Z"/>
            </g>
          </g>
          <path class="cls-12" d="M-705.3,199.7c.3,1.3.5,2.9,1.8,3.5-4,.7-11.5,1-15.6.5,0,0-.4-.3-.5-.3,2.4-1,2.6-1.5,3.1-3.8h11.2Z"/>
          <path class="cls-5" d="M-708.7,178.8c2.1,5.4,2.1,15.1,3.4,20.8h-11.2c1.4-5.6,2.2-29,6.9-22.7.2.2.7,1.4.8,1.8Z"/>
        </g>
      </g>
      <g id="Background-3" data-name="Background" class="cls-38">
        <path class="cls-21" d="M-511.7,93.2v139.4h-139.4V93.2h139.4Z"/>
        <path class="cls-9" d="M-582.4,121.8c2.5-.2,5,.4,7.5.3.7.9,1-.2,1.1.4,2.3-.2,4.9,1.3,6.8,1.4,1.5.6,2.7,1.3,4.1,1.9.3.7,2.1.9,2.5,1.1.1,0,.3.8,1.9,1.1,3.4,2.7,8.3,6.6,11,10,0,0-.2.2-.1.3,2.8,3.6,4.8,6.4,6.4,10.8.4,2.9,1.7,6,1.6,9.1.1.3.4.4.4.4.2,2-.5,6.4-.1,8.9-1,4.2-1.6,8.5-3.8,12.3,0,1.9-2.7,3.9-3,6.1-.3.5-.2-.3-.5.1-1.1,1.5-2.1,3.1-3.4,4.5-.5.5-3.3,3.6-3.5,3.7,0,0-.2-.2-.3-.1-.9.8-1.4,1.2-2.3,1.9-.5.4-.1.8-.5,1,0,0-.3-.3-.5-.1-1.4,1.1-2.5,2.4-4.4,2.6-1.3,1.3-3.1,1.2-4.8,2.3-1.3.2-3.3,1.1-4.4,1.4-3.2.8-7.2.9-10.6,1.2-1.6-.5-4.2,0-4.8-.7-2.4,0-7-1.1-9.4-2.5-8.8-2.8-13.3-8.5-19.1-15.3-.7-1.8-1-1.7-1.1-1.8,0,0,.4,0-.4-1.4,0-.2-1.2-1.5-1.2-1.6,0-.1.4-.6-1-2,.3-.8-1.2-3.3-1.2-3.5,0,0,.3-.2,0-1.2-.1-.5-.5-.6-.5-.7,0,0,.3-.4.1-1.1-.2-.8-1.2-2.4-.8-4.4-.5-.3,0-1-.1-2.3,0,0-.3-.4-.3-.4,0-2,.3-3.9.1-5.9.5-1.2.3-2.9,1-4.1,0-2.7,1.2-4.9,1.9-7.4.9,0,.3-.6.3-.7.7-1.6,1.7-2.8,2.2-4.5.2-.2,1.3-1.5,1.4-1.6.3-.4,0-.5,0-.5,2.2-3.5,3.5-4.1,4.8-5.6.3-.3.2-.8.3-.8,2.5-2.7,7.7-6.9,11.2-7.8,1-1.3,1.7-.9,1.8-1,.3-.1.6-.7.7-.7,0,0,.2.3.5.1.1,0,0-.6,1.5-.4-.7-.5,3.3-1.3,4.8-1.5.4-.7,1.4-.3,3-.5.3,0,.4-.4.4-.4.5,0,1,.2,1.8.1.2,0,1-.4,1.4-.4Z"/>
      </g>
      <path class="cls-18" d="M-560.1,164.5c-.8,4-.6,8.1-1,12.2-.4,4.2-1,8.3-2.5,12.3-.8,2.1-5.5,12.6-7.6,6.5-.8-2.4-1-23.2-8.1-25.9-10.8-4.1-11.2,21.9-12.2,25.5-1.9,6.7-6.9-3-8.6-9.1-2.7-9.5-1.3-14.7-2.5-20.9-1.6-8.7-11.5-23.5-2.1-31.4,5.6-4.7,13.1-2.4,18.9.7,1.7.3,3.2,1.2,5.9,1,4.9-.4,12.5-7.4,20.6-2.5,11.2,6.9.6,23.7-.9,31.5Z"/>
      <g id="Background-4" data-name="Background" class="cls-38">
        <path class="cls-3" d="M-461.1-42.2c136.6-.2,273.3.1,409.9,0v509.9c-44.1-1.6-88.2-1.7-132.2-1.5-15,0-30,1.5-45,1.5-111.6.3-223.1-2.7-334.7-.5.2-137.8-.2-275.6,0-413.4q51-48,102-96Z"/>
        <path class="cls-3" d="M-51.1,467.8v2h-511.9v-2.5c111.6-2.2,223.1.8,334.7.5,15,0,30-1.4,45-1.5,44.1-.2,88.2-.1,132.2,1.5Z"/>
        <path class="cls-3" d="M-267.1,299.3c1.6,17.1,9.7,89,8.5,98.7,0,.2-.9.6-1,1.2-.4,3.2-1.7,3.5-.5,6,1.5,3.2,5.1,5.1,7.5,7.5l1,1.7-1.5,1.2c-2.5-.3-13.3,2.2-24.2-.5-1.4-.4-2.6-1.9-2.7-2,.7-.6,1.1-1.2,1.5-1.5,2.6,4.2,23,3.3,23,.7-3-2.1-4.3-6.5-7.5-8.2-3.9-2.1-18.2-2.5-24-4,0-.2,0-.3,0-.5.5-13.6,5.6-41.2,6-50.2.5-9.7-1.9-18.9-2-22.7,0-.8-.6-1.2-.5-2.7.2-3.4,11-42.9,13-51.7.1-.2-.3-1,.5-1-.2,6.4,2.2,20.1,3,28Z"/>
        <path class="cls-25" d="M-356.1,387.8l-.5,3c-2.5.4-6.2,14.2-7,18.2,1.9,2.2,4.9,2.2,7.5,2.7-1.1,1.3,4.5,1.4-2,2-.2,0-.3,0-.5,0-2,0-4,0-5.7-1-1.1-.6-6.7-9.3-7.2-10.5-1.3-3-1.5-2.4-1.5-2.5-.2-.8,0-2.7,0-4-.6-12.7,1.6-55,3.5-68.5.1-1,.8-3,1-4,.2-1.2.3-2.3.5-3.5.3-1.8.7-3.7,1-5.5.3-1.6.7-3.3,1-5,.1-.7.9-2.3,1-3,1.4-8.1,1.9-16.9,4-24.5.4,9.2.4,18.5,0,27.7,0,.4-1.6,1.2-2,8-.6,10.7,3.4,65.9,5,69,.4.7,1.4.9,2,1.2Z"/>
        <path class="cls-25" d="M-318.1,397.8c.1.6,0,1.4,0,2l-23,.5c-2.3-3.8-2.3-4.3-2.5-9,0-1.2,0-2.3,0-3.5.2-.6,1.6-.7,2-2,.2-.7.2-5.7.5-8,.2-1.5.5-1.8.5-2,1-9.6.7-19.4,1.5-29,0-.2.4-.4.5-2,1.5-19.9,3.4-39.5,3-59.5,3.1,11.7,6.9,23.3,11,34.7,1.7,13.6-1.4,14.7-1.5,15.5-3.3,26.6,4.7,41.4,8,62.2Z"/>
      </g>
      <g>
        <path class="cls-4" d="M-220.9,275.9c6.1.6,10.3.9,13.9,3.9,10.7,8.6,6.8,29.1,4.7,40.4-5.2,27.4-19.5,49.4-23.8,48-3.8-1.3,1-19.5-6.2-22.7-2.8-1.3-6.7,0-8.9,1.8-3.2,2.5-2.3,5.4-5.4,10.4-3,4.7-7.9,8.7-9.4,7.9-1.6-.9,1.2-6.6,2.5-13,4.8-23.2-10.8-45.6-11.8-47.1-7.6-10.6-14.7-13.2-13.4-17.3,1.3-4.1,8.5-2.6,28.4-7.2,14.1-3.2,19.2-6,29.4-5Z"/>
        <path class="cls-35" d="M-254.3,273.8c11.7,3.6,25,10.7,24,14-1.5,5.3-39.8-3-41.2,2.5-.2.8.4,2,5.2,5.6,12.8,9.7,18.1,9.5,22.7,14,9.1,9.1,4.8,26.9,3.2,34.1-2.8,12.1-10.6,27.3-17,26.5-3.4-.4-5.4-5.3-6.6-8.1-14.4-33.8-38.2-38.3-37.6-61.7.3-10.2,5.1-22.7,15-28.2,10-5.6,21.5-2.1,32.2,1.3Z"/>
        <circle class="cls-35" cx="-274.3" cy="257.3" r="8.4"/>
        <circle class="cls-4" cx="-232.6" cy="261.4" r="9.2"/>
      </g>
      <g>
        <path class="cls-4" d="M853.1,144.8c9.2-.4,44.6-1.8,67.8,19,33,29.5,23,87.1,15,129.1-16.6,87.5-62.4,158-76,153.4-12.3-4.1,3.1-62.2-19.9-72.6-8.9-4-21.4.1-28.6,5.8-10.2,8.1-7.3,17.2-17.3,33.2-9.4,15.1-25.1,27.9-30,25.1-5-2.9,3.7-21.2,8-41.6,15.4-74.1-34.4-145.7-37.7-150.4-24.2-33.9-46.9-42-42.7-55.3,4.5-14.3,34.2-5.8,90.7-23,38.7-11.8,43.9-21.5,70.7-22.6Z"/>
        <path class="cls-35" d="M769.8,144.7c38.2,10.3,79.8,33.9,76.8,44.6-4.8,16.9-127.1-9.7-131.7,8.1-.7,2.7,1.2,6.3,16.6,18,40.8,31,57.9,30.2,72.5,44.7,29.2,29,15.5,85.9,10.1,108.9-9.1,38.8-33.9,87.1-54.3,84.6-11.1-1.4-17.5-17.4-21-25.8-53.8-130.5-121.3-167.2-99.2-229.2,8.6-24.2,28.6-45.8,52.6-55.7,28-11.6,54.6-4.5,77.6,1.7Z"/>
        <circle class="cls-35" cx="714.1" cy="98.2" r="26.9"/>
        <circle class="cls-4" cx="839.1" cy="105.1" r="29.3"/>
      </g>
      <text class="cls-39" transform="translate(-933.6 -20.2)"><tspan x="0" y="0">ZHIBIN JI D.D.S.</tspan></text>
      <g>
        <g>
          <path class="cls-4" d="M176.1,277.2h-9.9v6.4h9.3v1.2h-9.3v8h-1.4v-16.7h11.3v1.2h0Z"/>
          <path class="cls-4" d="M183.8,275.9h1.9l7.5,16.7h-1.5l-2.5-5.6h-8.9l-2.5,5.6h-1.5l7.5-16.7h0ZM188.6,285.9l-3.9-8.8-4,8.8h7.9Z"/>
          <path class="cls-4" d="M196.4,275.9h1.8l6.4,8.7,6.4-8.7h1.9v16.7h-1.4v-15.3l-6.8,9.3h-.2l-6.7-9.3v15.3h-1.4v-16.7Z"/>
          <path class="cls-4" d="M217.8,275.9h1.4v16.7h-1.4v-16.7Z"/>
          <path class="cls-4" d="M225.4,291.5h9.3v1.2h-10.7v-16.7h1.4v15.5h0Z"/>
          <path class="cls-4" d="M234.6,275.9l6,9.1,6-9.1h1.6l-6.9,10.4v6.3h-1.4v-6.2l-6.9-10.5h1.6,0Z"/>
          <path class="cls-4" d="M259.4,275.9h6c5.3,0,9.4,3.4,9.4,8.4s-4.1,8.4-9.4,8.4h-6v-16.7h0ZM265.4,291.5c4.5,0,7.9-2.9,7.9-7.1,0-4.2-3.5-7.1-7.9-7.1h-4.6v14.3h4.6Z"/>
          <path class="cls-4" d="M290.1,277.2h-9.9v6.3h9.3v1.2h-9.3v6.8h9.9v1.2h-11.3v-16.7h11.3v1.2h0Z"/>
          <path class="cls-4" d="M306.9,291.1v-8.2c-.1,0-.1-7-.1-7h1.4v16.7h-1.9l-11.4-15.2v8.2c.1,0,.1,7,.1,7h-1.4v-16.7h1.8l11.5,15.2h0Z"/>
          <path class="cls-4" d="M325.3,277.2h-6.2v15.5h-1.4v-15.5h-6.2v-1.2h13.8v1.2h0Z"/>
          <path class="cls-4" d="M328.7,275.9h1.4v16.7h-1.4v-16.7Z"/>
          <path class="cls-4" d="M348,288.1c0,3.2-2.9,4.8-6.5,4.8s-7-2.2-7.6-5.1h1.4c.7,2.5,2.7,3.9,6.2,3.9s5.2-1.3,5.2-3.5-1.9-2.6-5.7-3.4c-4.1-.9-6.6-1.7-6.6-4.5s2.8-4.7,6.4-4.7,6.3,1.7,7,4.1h-1.4c-.8-1.8-2.7-2.9-5.6-2.9s-5,1.3-5,3.5,1.2,2.3,5.6,3.2c4.1.8,6.7,1.5,6.7,4.6h0Z"/>
          <path class="cls-4" d="M363.5,277.2h-6.2v15.5h-1.4v-15.5h-6.2v-1.2h13.8v1.2h0Z"/>
          <path class="cls-4" d="M366.9,275.9h6.9c4.1,0,6.2,2.2,6.2,5s-2,4.9-5.7,5l6.3,6.7h-1.7l-6.3-6.7h-4.2v6.7h-1.4v-16.7h0ZM373.7,284.8c3.4,0,4.9-1.8,4.9-3.9s-1.5-3.8-4.9-3.8h-5.4v7.7h5.4Z"/>
          <path class="cls-4" d="M383.4,275.9l6,9.1,6-9.1h1.6l-6.9,10.4v6.3h-1.4v-6.2l-6.9-10.5h1.6,0Z"/>
        </g>
        <g class="cls-36">
          <path class="cls-28" d="M163.7,263.7v-3.8l14-14.8h-13.6v-3.7h19.1v3.8l-13.9,14.9h14.3v3.7h-19.8Z"/>
          <path class="cls-28" d="M202.4,263.7v-9.4h-11.2v9.4h-4.6v-22.3h4.6v9.1h11.2v-9.1h4.6v22.3h-4.6Z"/>
          <path class="cls-28" d="M212.1,263.7v-22.3h4.6v22.3h-4.6Z"/>
          <path class="cls-28" d="M234.1,263.7h-12.2v-22.3h11.1c4.7,0,7.4,2.3,7.4,5.8s-1,3.9-3.7,4.8c3.2.9,4.6,3.2,4.6,5.4,0,3.2-2.7,6.4-7.1,6.4ZM231.9,244.7h-5.6v6h5.5c2.4,0,3.9-1.1,3.9-3.1s-1.4-2.9-3.9-2.9ZM232.8,253.9h-6.4v6.3h6.4c2.5,0,3.8-1.2,3.8-3.2s-1.2-3.2-3.8-3.2Z"/>
          <path class="cls-28" d="M244.2,263.7v-22.3h4.6v22.3h-4.6Z"/>
          <path class="cls-28" d="M270.4,263.7l-12-15.6v15.6h-4.5v-22.3h4.5l12,15.6v-15.6h4.5v22.3h-4.5Z"/>
          <path class="cls-28" d="M288.3,263.8h-3.6v-3.4h3.5c2.4,0,3.2-1.5,3.2-3.7v-11.8h-6.2v-3.5h10.8v15.4c0,4.3-2.4,7-7.7,7Z"/>
          <path class="cls-28" d="M300.8,263.7v-22.3h4.6v22.3h-4.6Z"/>
          <path class="cls-28" d="M322.2,263.7h-5.4v-22.3h5.4c9,0,15.1,4.7,15.1,11.2s-6.1,11.2-15.1,11.2ZM323,245.1h-1.7v14.8h1.7c5,0,9.4-2.3,9.4-7.4s-4.4-7.4-9.4-7.4Z"/>
          <path class="cls-28" d="M339.5,263.7v-4.7h4.9v4.7h-4.9Z"/>
          <path class="cls-28" d="M354.2,263.7h-5.4v-22.3h5.4c9,0,15.1,4.7,15.1,11.2s-6.1,11.2-15.1,11.2ZM355,245.1h-1.7v14.8h1.7c5,0,9.4-2.3,9.4-7.4s-4.4-7.4-9.4-7.4Z"/>
          <path class="cls-28" d="M371.5,263.7v-4.7h4.9v4.7h-4.9Z"/>
          <path class="cls-28" d="M389.3,264c-3.2,0-7.2-.7-9.9-1.8l1-3.3c3,1,6.1,1.5,8.9,1.5s5.4-.9,5.4-2.7-1.3-2-6.1-3.7c-5.8-2-8.2-3.4-8.2-7.1s3.1-5.9,9.6-5.9,6.3.4,8.6,1.1l-.7,3.5c-2.3-.5-5.4-.8-7.9-.8-3.7,0-5.1.5-5.1,2.1s1.5,2.2,6.7,4.1c5.5,2,7.6,3,7.6,6.7s-4,6.5-9.9,6.5Z"/>
          <path class="cls-28" d="M401.9,263.7v-4.7h4.9v4.7h-4.9Z"/>
        </g>
      </g>
      <g>
        <path class="cls-4" d="M118.6,226.5c2.8-.1,13.7-.5,20.8,5.8,10.1,9,7,26.6,4.6,39.5-5.1,26.8-19.1,48.3-23.3,46.9-3.8-1.3,1-19-6.1-22.2-2.7-1.2-6.5,0-8.7,1.8-3.1,2.5-2.2,5.3-5.3,10.1-2.9,4.6-7.7,8.5-9.2,7.7-1.5-.9,1.1-6.5,2.4-12.7,4.7-22.7-10.5-44.6-11.5-46-7.4-10.4-14.3-12.9-13.1-16.9,1.4-4.4,10.5-1.8,27.7-7,11.9-3.6,13.4-6.6,21.6-6.9Z"/>
        <path class="cls-35" d="M93.1,226.5c11.7,3.1,24.4,10.4,23.5,13.7-1.5,5.2-38.9-3-40.3,2.5-.2.8.4,1.9,5.1,5.5,12.5,9.5,17.7,9.2,22.2,13.7,8.9,8.9,4.7,26.3,3.1,33.3-2.8,11.9-10.4,26.7-16.6,25.9-3.4-.4-5.4-5.3-6.4-7.9-16.5-39.9-37.1-51.1-30.3-70.1,2.6-7.4,8.8-14,16.1-17,8.6-3.6,16.7-1.4,23.8.5Z"/>
        <circle class="cls-35" cx="76" cy="212.3" r="8.2"/>
        <circle class="cls-4" cx="114.3" cy="214.3" r="9"/>
      </g>
      <g>
        <g>
          <path class="cls-4" d="M176.1,461h-9.9v6.4h9.3v1.2h-9.3v8h-1.4v-16.7h11.3v1.2h0Z"/>
          <path class="cls-4" d="M183.8,459.8h1.9l7.5,16.7h-1.5l-2.5-5.6h-8.9l-2.5,5.6h-1.5l7.5-16.7h0ZM188.6,469.7l-3.9-8.8-4,8.8h7.9Z"/>
          <path class="cls-4" d="M196.4,459.8h1.8l6.4,8.7,6.4-8.7h1.9v16.7h-1.4v-15.3l-6.8,9.3h-.2l-6.7-9.3v15.3h-1.4v-16.7Z"/>
          <path class="cls-4" d="M217.8,459.8h1.4v16.7h-1.4v-16.7Z"/>
          <path class="cls-4" d="M225.4,475.3h9.3v1.2h-10.7v-16.7h1.4v15.5h0Z"/>
          <path class="cls-4" d="M234.6,459.8l6,9.1,6-9.1h1.6l-6.9,10.4v6.3h-1.4v-6.2l-6.9-10.5h1.6,0Z"/>
          <path class="cls-4" d="M259.4,459.8h6c5.3,0,9.4,3.4,9.4,8.4s-4.1,8.4-9.4,8.4h-6v-16.7h0ZM265.4,475.3c4.5,0,7.9-2.9,7.9-7.1,0-4.2-3.5-7.1-7.9-7.1h-4.6v14.3h4.6Z"/>
          <path class="cls-4" d="M290.1,461h-9.9v6.3h9.3v1.2h-9.3v6.8h9.9v1.2h-11.3v-16.7h11.3v1.2h0Z"/>
          <path class="cls-4" d="M306.9,475v-8.2c-.1,0-.1-7-.1-7h1.4v16.7h-1.9l-11.4-15.2v8.2c.1,0,.1,7,.1,7h-1.4v-16.7h1.8l11.5,15.2h0Z"/>
          <path class="cls-4" d="M325.3,461h-6.2v15.5h-1.4v-15.5h-6.2v-1.2h13.8v1.2h0Z"/>
          <path class="cls-4" d="M328.7,459.8h1.4v16.7h-1.4v-16.7Z"/>
          <path class="cls-4" d="M348,472c0,3.2-2.9,4.8-6.5,4.8s-7-2.2-7.6-5.1h1.4c.7,2.5,2.7,3.9,6.2,3.9s5.2-1.3,5.2-3.5-1.9-2.6-5.7-3.4c-4.1-.9-6.6-1.7-6.6-4.5s2.8-4.7,6.4-4.7,6.3,1.7,7,4.1h-1.4c-.8-1.8-2.7-2.9-5.6-2.9s-5,1.3-5,3.5,1.2,2.3,5.6,3.2c4.1.8,6.7,1.5,6.7,4.6h0Z"/>
          <path class="cls-4" d="M363.5,461h-6.2v15.5h-1.4v-15.5h-6.2v-1.2h13.8v1.2h0Z"/>
          <path class="cls-4" d="M366.9,459.8h6.9c4.1,0,6.2,2.2,6.2,5s-2,4.9-5.7,5l6.3,6.7h-1.7l-6.3-6.7h-4.2v6.7h-1.4v-16.7h0ZM373.7,468.7c3.4,0,4.9-1.8,4.9-3.9s-1.5-3.8-4.9-3.8h-5.4v7.7h5.4Z"/>
          <path class="cls-4" d="M383.4,459.8l6,9.1,6-9.1h1.6l-6.9,10.4v6.3h-1.4v-6.2l-6.9-10.5h1.6,0Z"/>
        </g>
        <g class="cls-36">
          <path class="cls-34" d="M163.7,447.5v-3.8l14-14.8h-13.6v-3.7h19.1v3.8l-13.9,14.9h14.3v3.7h-19.8Z"/>
          <path class="cls-34" d="M202.4,447.5v-9.4h-11.2v9.4h-4.6v-22.3h4.6v9.1h11.2v-9.1h4.6v22.3h-4.6Z"/>
          <path class="cls-34" d="M212.1,447.5v-22.3h4.6v22.3h-4.6Z"/>
          <path class="cls-34" d="M234.1,447.5h-12.2v-22.3h11.1c4.7,0,7.4,2.3,7.4,5.8s-1,3.9-3.7,4.8c3.2.9,4.6,3.2,4.6,5.4,0,3.2-2.7,6.4-7.1,6.4ZM231.9,428.5h-5.6v6h5.5c2.4,0,3.9-1.1,3.9-3.1s-1.4-2.9-3.9-2.9ZM232.8,437.7h-6.4v6.3h6.4c2.5,0,3.8-1.2,3.8-3.2s-1.2-3.2-3.8-3.2Z"/>
          <path class="cls-34" d="M244.2,447.5v-22.3h4.6v22.3h-4.6Z"/>
          <path class="cls-34" d="M270.4,447.5l-12-15.6v15.6h-4.5v-22.3h4.5l12,15.6v-15.6h4.5v22.3h-4.5Z"/>
          <path class="cls-34" d="M288.3,447.6h-3.6v-3.4h3.5c2.4,0,3.2-1.5,3.2-3.7v-11.8h-6.2v-3.5h10.8v15.4c0,4.3-2.4,7-7.7,7Z"/>
          <path class="cls-34" d="M300.8,447.5v-22.3h4.6v22.3h-4.6Z"/>
          <path class="cls-34" d="M322.2,447.5h-5.4v-22.3h5.4c9,0,15.1,4.7,15.1,11.2s-6.1,11.2-15.1,11.2ZM323,428.9h-1.7v14.8h1.7c5,0,9.4-2.3,9.4-7.4s-4.4-7.4-9.4-7.4Z"/>
          <path class="cls-34" d="M339.5,447.5v-4.7h4.9v4.7h-4.9Z"/>
          <path class="cls-34" d="M354.2,447.5h-5.4v-22.3h5.4c9,0,15.1,4.7,15.1,11.2s-6.1,11.2-15.1,11.2ZM355,428.9h-1.7v14.8h1.7c5,0,9.4-2.3,9.4-7.4s-4.4-7.4-9.4-7.4Z"/>
          <path class="cls-34" d="M371.5,447.5v-4.7h4.9v4.7h-4.9Z"/>
          <path class="cls-34" d="M389.3,447.9c-3.2,0-7.2-.7-9.9-1.8l1-3.3c3,1,6.1,1.5,8.9,1.5s5.4-.9,5.4-2.7-1.3-2-6.1-3.7c-5.8-2-8.2-3.4-8.2-7.1s3.1-5.9,9.6-5.9,6.3.4,8.6,1.1l-.7,3.5c-2.3-.5-5.4-.8-7.9-.8-3.7,0-5.1.5-5.1,2.1s1.5,2.2,6.7,4.1c5.5,2,7.6,3,7.6,6.7s-4,6.5-9.9,6.5Z"/>
          <path class="cls-34" d="M401.9,447.5v-4.7h4.9v4.7h-4.9Z"/>
        </g>
      </g>
      <g>
        <path class="cls-13" d="M118.6,410.3c2.8-.1,13.7-.5,20.8,5.8,10.1,9,7,26.6,4.6,39.5-5.1,26.8-19.1,48.3-23.3,46.9-3.8-1.3,1-19-6.1-22.2-2.7-1.2-6.5,0-8.7,1.8-3.1,2.5-2.2,5.3-5.3,10.1-2.9,4.6-7.7,8.5-9.2,7.7-1.5-.9,1.1-6.5,2.4-12.7,4.7-22.7-10.5-44.6-11.5-46-7.4-10.4-14.3-12.9-13.1-16.9,1.4-4.4,10.5-1.8,27.7-7,11.9-3.6,13.4-6.6,21.6-6.9Z"/>
        <path class="cls-29" d="M93.1,410.3c11.7,3.1,24.4,10.4,23.5,13.7-1.5,5.2-38.9-3-40.3,2.5-.2.8.4,1.9,5.1,5.5,12.5,9.5,17.7,9.2,22.2,13.7,8.9,8.9,4.7,26.3,3.1,33.3-2.8,11.9-10.4,26.7-16.6,25.9-3.4-.4-5.4-5.3-6.4-7.9-16.5-39.9-37.1-51.1-30.3-70.1,2.6-7.4,8.8-14,16.1-17,8.6-3.6,16.7-1.4,23.8.5Z"/>
        <circle class="cls-29" cx="76" cy="396.1" r="8.2"/>
        <circle class="cls-13" cx="114.3" cy="398.2" r="9"/>
      </g>
      <rect class="cls-20" width="461.4" height="161.3"/>
    </g>
  </g>
</svg>