<svg xmlns="http://www.w3.org/2000/svg" xmlns:xlink="http://www.w3.org/1999/xlink" version="1.1" x="0px" y="0px" viewBox="0 0 64 80" style="enable-background:new 0 0 64 64;" xml:space="preserve"><g><g><g><path d="M50.02,47.55c-5.34,0-9.69-4.34-9.69-9.68c0-1.46,0.34-2.9,0.98-4.22c-1.91-1.34-3.05-3.53-3.05-5.9     c0-3.97,3.22-7.21,7.2-7.23c0.14-3.86,3.33-6.95,7.23-6.95c3.98,0,7.23,3.24,7.23,7.23c0,0.61-0.08,1.21-0.23,1.81     c2.59,1.14,4.33,3.73,4.33,6.61c0,2.97-1.81,5.6-4.5,6.69c0.13,0.65,0.2,1.31,0.2,1.97C59.7,43.21,55.36,47.55,50.02,47.55z      M45.48,22.47c-2.91,0-5.29,2.37-5.29,5.29c0,1.98,1.1,3.78,2.86,4.7c0.24,0.12,0.42,0.34,0.49,0.6     c0.07,0.26,0.03,0.54-0.11,0.77c-0.76,1.23-1.16,2.63-1.16,4.05c0,4.27,3.48,7.74,7.75,7.74c4.27,0,7.74-3.47,7.74-7.74     c0-0.78-0.12-1.57-0.35-2.32c-0.08-0.25-0.05-0.53,0.08-0.76c0.13-0.23,0.35-0.4,0.6-0.47c2.33-0.6,3.96-2.7,3.96-5.11     c0-2.36-1.59-4.45-3.87-5.08c-0.27-0.07-0.49-0.26-0.61-0.51c-0.12-0.25-0.13-0.54-0.02-0.8c0.27-0.66,0.41-1.34,0.41-2.03     c0-2.91-2.37-5.29-5.29-5.29c-2.92,0-5.29,2.37-5.29,5.29c0,0.22,0.02,0.43,0.05,0.64c0.05,0.3-0.05,0.61-0.27,0.83     c-0.21,0.22-0.52,0.32-0.82,0.28C46.02,22.5,45.76,22.47,45.48,22.47z"/></g><g><path d="M42.61,34.28c-0.21,0-0.42-0.07-0.59-0.2c-0.42-0.33-0.5-0.94-0.17-1.36c0.83-1.06,1.88-1.9,3.12-2.48     c0.48-0.23,1.06-0.02,1.29,0.47c0.23,0.49,0.02,1.06-0.47,1.29c-0.96,0.45-1.77,1.09-2.41,1.91     C43.18,34.16,42.9,34.28,42.61,34.28z"/></g><g><path d="M58.02,36.25c-1.24,0-2.49-0.27-3.72-0.82c-0.49-0.22-0.71-0.79-0.49-1.28c0.22-0.49,0.79-0.71,1.28-0.5     c1.07,0.47,2.15,0.69,3.21,0.65c0.52-0.03,0.99,0.39,1.01,0.93c0.02,0.53-0.39,0.99-0.93,1.01     C58.26,36.24,58.14,36.25,58.02,36.25z"/></g><g><path d="M48.31,25.1c-0.21,0-0.42-0.07-0.6-0.2c-0.99-0.77-1.71-1.77-2.15-2.98c-0.18-0.5,0.08-1.06,0.58-1.24     c0.5-0.18,1.06,0.08,1.24,0.58c0.32,0.88,0.81,1.57,1.52,2.11c0.42,0.33,0.5,0.94,0.17,1.36C48.89,24.97,48.6,25.1,48.31,25.1z"/></g></g><g><g><path d="M15.82,49.79c-3.27,0-6.09-2.18-6.99-5.23c-0.51,0.11-1.03,0.17-1.55,0.17C3.27,44.72,0,41.45,0,37.44     c0-2.7,1.46-5.12,3.79-6.39c-0.15-0.66-0.22-1.34-0.22-2.03c0-5.18,4.21-9.39,9.39-9.39c4.31,0,7.99,2.89,9.07,6.98     c3.98,0.04,7.2,3.3,7.2,7.28c0,3.67-2.72,6.71-6.26,7.21c0.09,0.46,0.14,0.93,0.14,1.4C23.11,46.52,19.84,49.79,15.82,49.79z      M9.56,42.35c0.17,0,0.34,0.05,0.49,0.14c0.26,0.15,0.43,0.41,0.47,0.71c0.34,2.65,2.62,4.65,5.29,4.65     c2.95,0,5.35-2.4,5.35-5.34c0-0.66-0.13-1.32-0.38-1.96c-0.12-0.3-0.08-0.64,0.1-0.9c0.22-0.33,0.64-0.45,1.02-0.41l0.03,0     c2.95,0,5.35-2.4,5.35-5.35c0-2.95-2.4-5.35-5.35-5.35c-0.2,0-0.4,0.01-0.59,0.03c-0.51,0.05-0.97-0.3-1.05-0.81     c-0.6-3.6-3.69-6.21-7.34-6.21c-4.11,0-7.45,3.34-7.45,7.45c0,0.78,0.12,1.54,0.35,2.26c0.16,0.48-0.09,1.01-0.56,1.2     c-2.04,0.82-3.36,2.77-3.36,4.97c0,2.94,2.4,5.34,5.34,5.34c0.67,0,1.32-0.12,1.93-0.36C9.32,42.37,9.44,42.35,9.56,42.35z"/></g><g><path d="M9.56,44.29c-0.01,0-0.02,0-0.03,0c-0.54-0.02-0.96-0.46-0.94-1c0.05-1.94,0.74-3.66,2.05-5.1     c0.36-0.4,0.97-0.43,1.37-0.07c0.4,0.36,0.43,0.97,0.07,1.37c-1,1.11-1.51,2.37-1.55,3.86C10.52,43.87,10.09,44.29,9.56,44.29z"/></g><g><path d="M21.69,41.16c-0.04,0-0.08,0-0.12-0.01c-1.3-0.16-2.6-0.67-3.87-1.5c-0.45-0.29-0.57-0.9-0.28-1.34     c0.29-0.45,0.9-0.57,1.34-0.28c1.02,0.67,2.04,1.07,3.04,1.2c0.53,0.07,0.91,0.55,0.84,1.08C22.59,40.8,22.18,41.16,21.69,41.16z     "/></g><g><path d="M20.6,31.54c-0.18,0-0.37-0.05-0.53-0.16c-0.45-0.29-0.57-0.89-0.28-1.34c0.5-0.77,0.67-1.49,0.51-2.22     c-0.11-0.52,0.22-1.04,0.74-1.15c0.53-0.12,1.04,0.22,1.15,0.74c0.27,1.24,0.01,2.49-0.78,3.69     C21.23,31.38,20.92,31.54,20.6,31.54z"/></g></g><g><g><path d="M42.29,59.78c-1.22,0-2.36-0.46-3.23-1.29c-0.87-0.82-1.39-1.94-1.45-3.14c-0.46-8.12-1.54-13.27-3.21-15.29     c-0.16-0.2-0.33-0.2-0.49,0c-1.67,2.03-2.75,7.17-3.2,15.29c-0.15,2.49-2.2,4.43-4.69,4.43c-0.92,0-1.82-0.27-2.6-0.79     c-0.77-0.52-1.37-1.25-1.73-2.09c-1.23-2.86-2.16-6.01-2.77-9.37c-0.1-0.53,0.25-1.03,0.78-1.13c0.53-0.1,1.03,0.25,1.13,0.78     c0.59,3.22,1.48,6.23,2.65,8.96c0.21,0.5,0.57,0.94,1.02,1.24c0.45,0.3,0.98,0.46,1.52,0.46c1.46,0,2.66-1.14,2.75-2.61     c0.49-8.78,1.64-14,3.64-16.41c0.86-1.04,2.62-1.04,3.48,0c1.99,2.41,3.15,7.63,3.65,16.42c0.04,0.71,0.34,1.36,0.85,1.85     c0.51,0.49,1.18,0.76,1.89,0.76c1.1,0,2.1-0.67,2.55-1.71c1.26-2.94,2.22-6.34,2.79-9.81c0.09-0.53,0.58-0.9,1.11-0.8     c0.53,0.09,0.89,0.59,0.8,1.11c-0.6,3.63-1.61,7.18-2.93,10.27C45.87,58.65,44.17,59.78,42.29,59.78z"/></g><g><path d="M15.38,21.93c-0.06,0-0.12,0-0.18-0.02c-0.53-0.1-0.87-0.6-0.78-1.13c0.58-3.1,1.95-5.9,4.08-8.33     c2.07-2.36,5.52-3.07,8.37-1.72c1.42,0.68,3,1.3,4.58,1.82c1.77,0.58,3.64,0.58,5.41,0c1.58-0.51,3.16-1.14,4.58-1.82     c2.86-1.35,6.3-0.64,8.37,1.72c0.56,0.64,1.06,1.29,1.49,1.94c0.3,0.44,0.18,1.05-0.26,1.35c-0.44,0.3-1.05,0.18-1.35-0.26     c-0.39-0.58-0.84-1.17-1.34-1.74c-1.5-1.72-4.01-2.23-6.08-1.25c-1.49,0.71-3.15,1.37-4.81,1.91c-2.16,0.71-4.45,0.71-6.62,0     c-1.65-0.54-3.31-1.2-4.8-1.91c-2.08-0.98-4.58-0.47-6.08,1.25c-1.9,2.16-3.12,4.65-3.63,7.4C16.24,21.6,15.83,21.93,15.38,21.93     z"/></g></g><g><path d="M9.5,18.2c-2.02,0-3.66-1.64-3.66-3.66c0-2.02,1.64-3.66,3.66-3.66c2.02,0,3.66,1.64,3.66,3.66    C13.16,16.56,11.52,18.2,9.5,18.2z M9.5,12.83c-0.95,0-1.72,0.77-1.72,1.72c0,0.95,0.77,1.72,1.72,1.72    c0.95,0,1.72-0.77,1.72-1.72C11.22,13.6,10.45,12.83,9.5,12.83z"/></g><g><path d="M56.99,11.54c-2.02,0-3.66-1.64-3.66-3.66c0-2.02,1.64-3.66,3.66-3.66c2.02,0,3.66,1.64,3.66,3.66    C60.65,9.9,59.01,11.54,56.99,11.54z M56.99,6.16c-0.95,0-1.72,0.77-1.72,1.72s0.77,1.72,1.72,1.72c0.95,0,1.72-0.77,1.72-1.72    S57.94,6.16,56.99,6.16z"/></g><g><path d="M59.68,56.73c-2.02,0-3.66-1.64-3.66-3.66c0-2.02,1.64-3.66,3.66-3.66c2.02,0,3.66,1.64,3.66,3.66    C63.33,55.09,61.69,56.73,59.68,56.73z M59.68,51.36c-0.95,0-1.72,0.77-1.72,1.72c0,0.95,0.77,1.72,1.72,1.72    c0.95,0,1.72-0.77,1.72-1.72C61.4,52.13,60.62,51.36,59.68,51.36z"/></g><g><path d="M8.68,59.78c-2.02,0-3.66-1.64-3.66-3.66c0-2.02,1.64-3.66,3.66-3.66c2.02,0,3.66,1.64,3.66,3.66    C12.34,58.14,10.7,59.78,8.68,59.78z M8.68,54.4c-0.95,0-1.72,0.77-1.72,1.72c0,0.95,0.77,1.72,1.72,1.72    c0.95,0,1.72-0.77,1.72-1.72C10.4,55.17,9.63,54.4,8.68,54.4z"/></g></g><text x="0" y="79" fill="#000000" font-size="5px" font-weight="bold" font-family="'Helvetica Neue', Helvetica, Arial-Unicode, Arial, Sans-serif">Created by Haider Ali</text><text x="0" y="84" fill="#000000" font-size="5px" font-weight="bold" font-family="'Helvetica Neue', Helvetica, Arial-Unicode, Arial, Sans-serif">from the Noun Project</text></svg>