<?xml version="1.0" encoding="UTF-8"?>
<svg xmlns="http://www.w3.org/2000/svg" version="1.1" viewBox="0 0 512 512">
  <defs>
    <style>
      .cls-1 {
        fill: #0c123a;
        mix-blend-mode: soft-light;
        stroke: #0c123a;
        stroke-miterlimit: 10;
      }

      .cls-1, .cls-2 {
        isolation: isolate;
      }

      .cls-3 {
        fill: #3180a0;
        stroke-width: 0px;
      }
    </style>
  </defs>
  <g class="cls-2">
    <g id="Layer_1" data-name="Layer 1">
      <g>
        <path class="cls-3" d="M327.7,86.1c10.4-.4,50.4-2,76.6,21.4,37.3,33.3,25.9,98.3,16.9,145.7-18.7,98.8-70.4,178.3-85.8,173.1-12.9-4.3,5-66.8-22.5-81.9-9.1-5-20-3-28.2-.4-1.3,4.7-3.3,11.5-5.9,19.7-6.2,18.9-10.3,31.1-18,43-7,10.7-22.2,29.3-29.1,26.3-7.6-3.3,1.7-30.5,4.5-63.3.7-8.4,8-99-42.5-169.8-27.3-38.3-52.9-47.4-48.2-62.4,5.1-16.1,38.6-6.5,102.3-25.9,11.5-3.5,31.1-17.5,62.1-23.2,7.4-1.3,13.6-2,17.7-2.3Z"/>
        <path class="cls-1" d="M233.7,86c43.1,11.6,90.1,38.3,86.6,50.4-5.5,19.1-143.5-10.9-148.6,9.1-.8,3,1.4,7.1,18.7,20.3,46.1,35,65.3,34.1,81.9,50.5,33,32.7,17.5,97,11.4,122.9-10.3,43.8-38.3,98.3-61.3,95.5-12.6-1.5-19.8-19.6-23.7-29.1-60.8-147.3-136.9-188.7-111.9-258.7,9.7-27.3,32.3-51.7,59.3-62.9,31.6-13.1,61.6-5.1,87.6,2h0Z"/>
      </g>
    </g>
  </g>
</svg>