<?xml version="1.0" encoding="UTF-8"?>
<svg xmlns="http://www.w3.org/2000/svg" viewBox="0 0 512 512">
  <defs>
    <style>
      .cls-1 {
        fill: #3180a0;
        stroke-width: 0px;
      }

      .cls-2 {
        isolation: isolate;
      }

      .cls-3 {
        fill: #0c123a;
        mix-blend-mode: soft-light;
        stroke: #0c123a;
        stroke-miterlimit: 10;
      }
    </style>
  </defs>
  <g class="cls-2">
    <g id="Layer_1" data-name="Layer 1">
      <g>
        <path class="cls-1" d="M319.47,138.25c9.17-.37,44.62-1.78,67.84,18.95,33.01,29.48,22.96,87.1,15.01,129.06-16.59,87.55-62.36,158-76.02,153.38-12.26-4.14,3.12-62.16-19.92-72.57-8.93-4.03-21.38.14-28.58,5.81-10.23,8.07-7.34,17.19-17.31,33.17-9.43,15.11-25.11,27.94-29.97,25.09-5-2.93,3.71-21.17,7.96-41.65,15.38-74.13-34.36-145.73-37.7-150.4-24.22-33.92-46.86-42.04-42.68-55.31,4.49-14.26,34.17-5.77,90.67-22.98,38.74-11.8,43.86-21.49,70.71-22.56Z"/>
        <path class="cls-3" d="M236.24,138.19c38.16,10.27,79.81,33.93,76.75,44.61-4.85,16.91-127.12-9.66-131.68,8.12-.68,2.65,1.22,6.29,16.6,17.96,40.81,30.98,57.89,30.2,72.53,44.73,29.2,28.97,15.47,85.93,10.1,108.88-9.08,38.82-33.89,87.11-54.33,84.61-11.13-1.36-17.51-17.35-20.99-25.79-53.84-130.51-121.27-167.15-99.16-229.16,8.63-24.22,28.6-45.79,52.55-55.72,28-11.61,54.55-4.46,77.63,1.75Z"/>
        <circle class="cls-3" cx="180.53" cy="91.72" r="26.92"/>
        <circle class="cls-1" cx="305.52" cy="98.54" r="29.27"/>
      </g>
    </g>
  </g>
</svg>